/* XPM */
static char *result[] = {
/* columns rows colors chars-per-pixel */
"34 22 80 1 ",
"  c black",
". c #0A0903",
"X c #0D0D0E",
"o c #0D0D0F",
"O c #190D00",
"+ c #141207",
"@ c #1F1000",
"# c #14140F",
"$ c #1E1C0A",
"% c gray8",
"& c #2C0000",
"* c #231603",
"= c #251400",
"- c #2E1207",
"; c #381E00",
": c #26230D",
"> c #28250D",
", c #2E280D",
"< c #2C290E",
"1 c #3E2100",
"2 c #312E10",
"3 c #322F19",
"4 c #3B3714",
"5 c #35353B",
"6 c #37373E",
"7 c gray24",
"8 c #54250D",
"9 c #643400",
"0 c #4E491A",
"q c #4F4A1A",
"w c #584A1A",
"e c #59531E",
"r c #5A541E",
"t c #524F3C",
"y c #635C21",
"u c #6D6524",
"i c #776E27",
"p c #42424A",
"a c #5F5C4B",
"s c #66634C",
"d c #DE0000",
"f c #E32E10",
"g c #834500",
"h c #9C5200",
"j c #A35E07",
"k c #996814",
"l c #AE7010",
"z c #887021",
"x c #80782B",
"c c #817B3F",
"v c #E85C21",
"b c #D76524",
"n c #B9811A",
"m c #8A812E",
"M c #948A31",
"N c #9E9334",
"B c #A89C38",
"V c #BCAF3E",
"C c #C08D21",
"Z c #CB9F2B",
"A c #A0995E",
"S c #BFB87D",
"D c #C6B842",
"F c #F2B842",
"G c #CFC145",
"H c #D9CA48",
"J c #DACC51",
"K c #DACC56",
"L c #E5C842",
"P c #F3C145",
"I c #F4CA48",
"U c #E3D44B",
"Y c #ECD448",
"T c #EDDD4F",
"R c #F7E652",
"E c #F8E967",
"W c #FAEF90",
"Q c None",
"! c #f7e652",
"? c #d6d6d6",
/* pixels */
"QQQQQQQQQQQQQQQQQQQQQQQQQQQQQQQQQQ",
"QQQQQQQQQQQQQQQQQQQ QQQQQQQQQQQ QQ",
"QQQQQQQQQQQQQQQQQQo5 QQQQQQQQQ 5oQ",
"QQQQQQQQQQ<*@@,@@@op5.2222:QQ 5poQ",
"!!!!!!!!!<BlhhLhhhop63HRRRx:QX6poQ",
"!!!!!!!! MRlhhLhhh#sa5yRRRRy 5as#Q",
"???????? MRlhhLhhh2RJtyRRRRy tJR2Q",
"???????? MRlhhLhhh2RRHiVRRRy4HRR2Q",
"+yyyy0!! MRZjnYChCuBRRMyRRRyMRRB<Q",
"2RRRRM ! MRRZYRRCRD2RRViVRViVRR2QQ",
"<MMBRM ! MRRRRRRRRHuBRRM4M4MRRB<QQ",
"?  $VV4  MRRRRRRRRUmxRRVyyyVRRx:QQ",
"??? >zk; MRRRRRRRRuBRRRRRRRRRRRB<Q",
"???? O9g=MRRRRRRRR2RRESNRRRRWcHR2Q",
"!!!!! O1OMRRRRRRRR2RRK7yRRNVA%DR2Q",
"!!!!!!!  MRRRRRRRR2IvbMVRRVGVMbv-Q",
"???????? MRRRRRRRR2FdfVNRNVRNHfd&Q",
"???????? MRRRRRRRRBwFPM+2+$2+DP8QQ",
"QQQQQQQQ $BRRRRRRRTBeRUDDDDDDTeQQQ",
"QQQQQQQrDq$22222222>.222222222QQQQ",
"QQQQQQQyRy Q ND QQQQQ>Di  iDqQQQQQ",
"QQQQQQQ   QQ   QQQQQQQ   Q  QQQQQQ"
};
