/* XPM */
static char *result[] = {
/* columns rows colors chars-per-pixel */
"34 22 80 1 ",
"  c black",
". c #0B0B0C",
"X c #0D0D0E",
"o c #0D0D0F",
"O c #190D00",
"+ c #141207",
"@ c #1F1000",
"# c #14140F",
"$ c #1E1C0A",
"% c gray8",
"& c #2C0000",
"* c #231603",
"= c #251400",
"- c #271500",
"; c #2E1207",
": c #26230D",
"> c #28250D",
", c #2E280D",
"< c #2C290E",
"1 c #3E2100",
"2 c #312E10",
"3 c #3B3714",
"4 c #3E3A15",
"5 c #35353B",
"6 c #37373E",
"7 c gray24",
"8 c #54250D",
"9 c #5E3100",
"0 c #643400",
"q c #4E491A",
"w c #4F4A1A",
"e c #544414",
"r c #584A1A",
"t c #59531E",
"y c #5A541E",
"u c #524F3C",
"i c #635C21",
"p c #6D6524",
"a c #776E27",
"s c #42424A",
"d c #5F5C4B",
"f c #66634C",
"g c #DE0000",
"h c #E32E10",
"j c #9C5200",
"k c #A35E07",
"l c #AE7010",
"z c #80782B",
"x c #817B3F",
"c c #E85C21",
"v c #D76524",
"b c #B9811A",
"n c #8A812E",
"m c #948A31",
"M c #9E9334",
"N c #A89C38",
"B c #BA9E31",
"V c #BCAF3E",
"C c #C08D21",
"Z c #CB9F2B",
"A c #A0995E",
"S c #BFB87D",
"D c #C6B842",
"F c #F2B842",
"G c #CFC145",
"H c #D9CA48",
"J c #DACC51",
"K c #DACC56",
"L c #E5C842",
"P c #F3C145",
"I c #F4CA48",
"U c #E3D44B",
"Y c #ECD448",
"T c #EDDD4F",
"R c #F7E652",
"E c #F8E967",
"W c #FAEF90",
"Q c None",
"! c #f7e652",
"? c #d6d6d6",
/* pixels */
"QQQQQQQQQQQQQQQQQQQ QQQQQQQQQQQ QQ",
"QQQQQQQQQQQQQQQQQQo5 QQQQQQQQQ 5oQ",
"QQQQQQQQQQQQQQQQQQos5 QQQQQQQ 5soQ",
"QQQQQQQQQQ<*@@,@@@os6.+222:QQX6soQ",
"!!!!!!!!!<NljjLjjj#fd5iRRRz: 5df#Q",
"!!!!!!!! mRljjLjjj2RJuiRRRRi uJR2Q",
"???????? mRljjLjjj2RRHaVRRRi3HRR2Q",
"???????? mRljjLjjjpNRRmiRRRimRRN<Q",
"+iiiiq!! mRZkbYCjCD2RRVaVRVaVRR2QQ",
"2RRRRm ! mRRZYRRCRHpNRRm3m3mRRN<QQ",
"<mmNRm ! mRRRRRRRRUnzRRViiiVRRz:QQ",
"?? 2Rm   mRRRRRRRRpNRRRRRRRRRRRN<Q",
"???:MB99=mRRRRRRRR2RRESMRRRRWxHR2Q",
"????4e0j1mRRRRRRRR2RRK7iRRMVA%DR2Q",
"!!!!!!-1OmRRRRRRRR2IcvmVRRVGVmvc;Q",
"!!!!!!!! mRRRRRRRR2FghVMRMVRMHhg&Q",
"???????? mRRRRRRRRNrFPm+2+$2+DP8QQ",
"???????? mRRRRRRRRTNtRUDDDDDDTtQQQ",
"QQQQQQQyw$NRRRRRRRRTN222222222QQQQ",
"QQQQQQyHHw$222222222>     aw QQQQQ",
"QQQQQQiRiQ DR2QQQQQQ2Rm QmRiQQQQQQ",
"QQQQQQ  QQ   QQQQQQQ   QQ   QQQQQQ"
};
