/* XPM */
static char *result[] = {
/* columns rows colors chars-per-pixel */
"34 22 83 1 ",
"  c black",
". c #0A0903",
"X c #0D0D0E",
"o c #0D0D0F",
"O c #190D00",
"+ c #141207",
"@ c #1F1000",
"# c #14140F",
"$ c #1E1C0A",
"% c gray8",
"& c #231603",
"* c #251400",
"= c #311A00",
"- c #26230D",
"; c #28250D",
": c #2E280D",
"> c #2C290E",
", c #3E2100",
"< c #302D10",
"1 c #312E10",
"2 c #3B3714",
"3 c #28282C",
"4 c #35353B",
"5 c #37373E",
"6 c gray24",
"7 c #54250D",
"8 c #5E3100",
"9 c #773E00",
"0 c #4E491A",
"q c #4F4A1A",
"w c #584A1A",
"e c #59531E",
"r c #5A541E",
"t c #7E661E",
"y c #534F2E",
"u c #575223",
"i c #635C21",
"p c #6D6524",
"a c #776E27",
"s c #6F693E",
"d c #42424A",
"f c #5F5C4B",
"g c #66634C",
"h c #DE0000",
"j c #E32E10",
"k c #9C5200",
"l c #A35E07",
"z c #AE7010",
"x c #80782B",
"c c #81782B",
"v c #817B3F",
"b c #E85C21",
"n c #C66E27",
"m c #D76524",
"M c #B9811A",
"N c #948A31",
"B c #9E9334",
"V c #AD9731",
"C c #A89C38",
"Z c #BCAF3E",
"A c #C08D21",
"S c #CB9F2B",
"D c #BDB35A",
"F c #838062",
"G c #BFB87D",
"H c #C6B842",
"J c #F2B842",
"K c #CFC145",
"L c #D9CA48",
"P c #E5C842",
"I c #F3C145",
"U c #F4CA48",
"Y c #E3D44B",
"T c #ECD448",
"R c #EDDD4F",
"E c #E1D251",
"W c #F2E152",
"Q c #F7E652",
"! c #F9EC7C",
"~ c #FBF2A5",
"^ c None",
"| c #f7e652",
"? c #d6d6d6",
/* pixels */
"^^^^^^^^^^^^^^^^^^^^^^^^^^^^^^^^^^",
"^^^^^^^^^^^^^^^^^^^^ ^^^^^^^^^^^ ^",
"^^^^^^^^^^^^^^^^^^^o5X^^^^^^^^^X5 ",
"^^^^^^^^^^>&@@:@@@;od4+111-^^^ 4d ",
"|||||||||>CzkkPkkkHod5uLQQx-^^X5d ",
"|||||||| NQzkkPkkkH#gf3iQQQi^ 4fg ",
"???????? NQzkkPkkkH1QEyiQQQi^ sEQ ",
"???????? NQzkkPkkkH1QQZaZQQi rLQQ ",
"|||||||| NQSlMTAkALpCQQNiQQi HQQC ",
"|||||||| NQQSTQQAQQH1QQZaKQi2LQQ1^",
"|||||||| NQQQQQQQQQLpCQQNeN2NQQC>^",
"???????? NQQQQQQQQQLpCQQKNNNKQQC>^",
"???????  NQQQQQQQQLpCQQQQQQQQQQQC ",
"????? =8*NQQQQQQQQH1QQ!GBQQQQ~vLQ ",
"||  0t9k,NQQQQQQQQH1QQD6iQQBZF%HQ ",
"|>NNZV,,ONQQQQQQQQH1UbnNZQQZKCNmb ",
"?1QQQN ? NQQQQQQQQH1JhbCxQxCQeKjh ",
"?1QK1>?? NQQQQQQQQRCwJUN+1+$1.HI7^",
"^1QH ^^^ $CQQQQQQQQRCeQYHHHHHHRe^^",
"^<WH ^^^cq$111111111;.111111111^^^",
"^   ^^^^NQi^ HQ ^^^^^^iQN^ NQ1^^^^",
"^^^^^^^^  ^^^   ^^^^^^^  ^^   ^^^^"
};
