/* XPM */
static char *result[] = {
/* columns rows colors chars-per-pixel */
"34 22 83 1 ",
"  c black",
". c #0A0903",
"X c #0D0D0E",
"o c #0D0D0F",
"O c #190D00",
"+ c #141207",
"@ c #1F1000",
"# c #14140F",
"$ c #1E1C0A",
"% c gray8",
"& c #231603",
"* c #251400",
"= c #271500",
"- c #26230D",
"; c #28250D",
": c #2E280D",
"> c #2C290E",
", c #3E2100",
"< c #312E10",
"1 c #3B3714",
"2 c #3E3A15",
"3 c #28282C",
"4 c #3D3B2D",
"5 c #35353B",
"6 c #37373E",
"7 c gray24",
"8 c #54250D",
"9 c #5E3100",
"0 c #643400",
"q c #4E491A",
"w c #4F4A1A",
"e c #544414",
"r c #584A1A",
"t c #59531E",
"y c #5A541E",
"u c #575223",
"i c #524F3C",
"p c #635C21",
"a c #6D6524",
"s c #776E27",
"d c #42424A",
"f c #5F5C4B",
"g c #66634C",
"h c #DE0000",
"j c #E32E10",
"k c #9C5200",
"l c #A35E07",
"z c #AE7010",
"x c #80782B",
"c c #81782B",
"v c #817B3F",
"b c #E85C21",
"n c #C66E27",
"m c #D76524",
"M c #B9811A",
"N c #8A812E",
"B c #948A31",
"V c #9E9334",
"C c #A89C38",
"Z c #BA9E31",
"A c #BCAF3E",
"S c #C08D21",
"D c #CB9F2B",
"F c #BDB35A",
"G c #838062",
"H c #BFB87D",
"J c #C6B842",
"K c #F2B842",
"L c #CFC145",
"P c #D9CA48",
"I c #DACC51",
"U c #E5C842",
"Y c #F3C145",
"T c #F4CA48",
"R c #E3D44B",
"E c #ECD448",
"W c #EDDD4F",
"Q c #F7E652",
"! c #F9EC7C",
"~ c #FBF2A5",
"^ c None",
"| c #f7e652",
"? c #d6d6d6",
/* pixels */
"^^^^^^^^^^^^^^^^^^^^^^^^^^^^^^^^^^",
"^^^^^^^^^^^^^^^^^^^^ ^^^^^^^^^^^ ^",
"^^^^^^^^^^^^^^^^^^^o5 ^^^^^^^^^ 5 ",
"^^^^^^^^^^>&@@:@@@;od5+<<<-^^^ 5d ",
"|||||||||>CzkkUkkkJod6uPQQx-^^X6d ",
"|||||||| BQzkkUkkkJ#gf3pQQQp^ 5fg ",
"???????? BQzkkUkkkJ<QI4pQQQp^ iIQ ",
"???????? BQzkkUkkkJ<QQAsAQQp yPQQ ",
"|||||||| BQDlMESkSPaCQQBpQQp JQQC ",
"+ppppq|| BQQDEQQSQQJ<QQAsLQp1PQQ<^",
"<QQQQB | BQQQQQQQQQPaCQQBtB1BQQC>^",
">BBCQB ? BQQQQQQQQQRNxQQApppAQQx-^",
"?? <QB   BQQQQQQQQPaCQQQQQQQQQQQC ",
"???-VZ99*BQQQQQQQQJ<QQ!HVQQQQ~vPQ ",
"||||2e0k,BQQQQQQQQJ<QQF7pQQVAG%JQ ",
"||||||=,OBQQQQQQQQJ<TbnBAQQALCBmb ",
"|||||||| BQQQQQQQQJ<KhbAVQVAQxPjh ",
"|||||||| BQQQQQQQQWCrKTB+<+$<.JY8^",
"^^^^^^^^ $CQQQQQQQQWCtQRJJJJJJWt^^",
"^^^^^^^^cw$<<<<<<<<<;.<<<<<<<<<^^^",
"^^^^^^^^BPw^ VJ ^^^^^^wJs  sJ;^^^^",
"^^^^^^^^  ^^^   ^^^^^^^  ^^   ^^^^"
};
