/* XPM */
static char *result[] = {
/* columns rows colors chars-per-pixel */
"34 22 77 1 ",
"  c black",
". c #0A0903",
"X c #0D0D0E",
"o c #0D0D0F",
"O c #190D00",
"+ c #141207",
"@ c #1F1000",
"# c #14140F",
"$ c #1E1C0A",
"% c gray8",
"& c #2C0000",
"* c #231603",
"= c #251400",
"- c #2E1207",
"; c #26230D",
": c #28250D",
"> c #2E280D",
", c #2C290E",
"< c #3E2100",
"1 c #312E10",
"2 c #322F19",
"3 c #3B3714",
"4 c #35353B",
"5 c #37373E",
"6 c gray24",
"7 c #54250D",
"8 c #5E3100",
"9 c #643400",
"0 c #4F4A1A",
"q c #544414",
"w c #584A1A",
"e c #59531E",
"r c #5A541E",
"t c #7E661E",
"y c #635C21",
"u c #6D6524",
"i c #776E27",
"p c #6F693E",
"a c #42424A",
"s c #5F5C4B",
"d c #66634C",
"f c #DE0000",
"g c #E32E10",
"h c #9C5200",
"j c #A35E07",
"k c #AE7010",
"l c #80782B",
"z c #817B3F",
"x c #E85C21",
"c c #D76524",
"v c #B9811A",
"b c #948A31",
"n c #9E9334",
"m c #A89C38",
"M c #BCAF3E",
"N c #C08D21",
"B c #CB9F2B",
"V c #A0995E",
"C c #BFB87D",
"Z c #C6B842",
"A c #F2B842",
"S c #CFC145",
"D c #D9CA48",
"F c #DACC56",
"G c #E5C842",
"H c #F3C145",
"J c #F4CA48",
"K c #E3D44B",
"L c #ECD448",
"P c #EDDD4F",
"I c #E1D251",
"U c #F7E652",
"Y c #F8E967",
"T c #FAEF90",
"R c None",
"Q c #f7e652",
"W c #d6d6d6",
/* pixels */
"RRRRRRRRRRRRRRRRRRRRRRRRRRRRRRRRRR",
"RRRRRRRRRRRRRRRRRRRR RRRRRRRRRRR R",
"RRRRRRRRRRRRRRRRRRRo5XRRRRRRRRRX5o",
"RRRRRRRRRRR,*@@>@@@oa4.1111;RR 4ao",
"QQQQQQQQQQ,mkhhGhhhoa52DUUUl;RX5ao",
"QQQQQQQQQ bUkhhGhhh#ds4yUUUUy 4sd#",
"WWWWWWWWW bUkhhGhhh1UIpyUUUUy pIU1",
"WWWWWWWWW bUkhhGhhh1UUDiMUUUy3DUU1",
"QQQQQQQQQ bUBjvLNhNumUUbyUUUybUUm,",
"QQQQQQQQQ bUUBLUUNUZ1UUMiMUMiMUU1R",
"Qyy0 QQQQ bUUUUUUUUDumUUb3b3bUUm,R",
" UUKbbe   bUUUUUUUUDumUUSbbbSUUm,R",
" UUUUUSt8=bUUUUUUUUumUUUUUUUUUUUm,",
" UDyyyyq9<bUUUUUUUU1UUYCnUUUUTzDU1",
" UZ QQQ OObUUUUUUUU1UUF6yUUnMV%ZU1",
" yrQQQQQQ bUUUUUUUU1JxcbMUUMSMbcx-",
"WWWWWWWWW bUUUUUUUU1AfgmlUlmUlSgf&",
"WWWWWWWWW bUUUUUUUUmwAHb+1+$1+ZH7R",
"RRRRRRRR  $mUUUUUUUPmeUKZZZZZZPeRR",
"RRRRRRRrZZ0$11111111:.111111111RRR",
"RRRRRRRyUyR ZU1RRRRRR1Ub RbUyRRRRR",
"RRRRRRR  RRR   RRRRRRR   R   RRRRR"
};
