/* XPM */
static char *result[] = {
/* columns rows colors chars-per-pixel */
"34 22 83 1 ",
"  c black",
". c #0A0903",
"X c #0D0D0E",
"o c #0D0D0F",
"O c #130A00",
"+ c #190D00",
"@ c #141207",
"# c #1F1000",
"$ c #14140F",
"% c #1E1C0A",
"& c gray8",
"* c #231603",
"= c #251400",
"- c #26230D",
"; c #2A220A",
": c #28250D",
"> c #2E280D",
", c #2C290E",
"< c #3E2100",
"1 c #2F2C10",
"2 c #302D10",
"3 c #312E10",
"4 c #3B3714",
"5 c #28282C",
"6 c #35353B",
"7 c #37373E",
"8 c gray24",
"9 c #54250D",
"0 c #5E3100",
"q c #773E00",
"w c #584A1A",
"e c #59531E",
"r c #5A541E",
"t c #7E661E",
"y c #534F2E",
"u c #575223",
"i c #635C21",
"p c #6D6524",
"a c #776E27",
"s c #6F693E",
"d c #42424A",
"f c #5F5C4B",
"g c #66634C",
"h c #DE0000",
"j c #E32E10",
"k c #9C5200",
"l c #A35E07",
"z c #AE7010",
"x c #B27614",
"c c #80782B",
"v c #817B3F",
"b c #E85C21",
"n c #C66E27",
"m c #D76524",
"M c #B9811A",
"N c #948A31",
"B c #9E9334",
"V c #A89C38",
"C c #BCAF3E",
"Z c #C08D21",
"A c #CB9F2B",
"S c #E1C23E",
"D c #BDB35A",
"F c #838062",
"G c #BFB87D",
"H c #C6B842",
"J c #F2B842",
"K c #CFC145",
"L c #D9CA48",
"P c #E5C842",
"I c #F3C145",
"U c #F4CA48",
"Y c #E3D44B",
"T c #ECD448",
"R c #EDDD4F",
"E c #E1D251",
"W c #F2E152",
"Q c #F7E652",
"! c #F9EC7C",
"~ c #FBF2A5",
"^ c None",
"| c #f7e652",
"? c #d6d6d6",
/* pixels */
"^^^^^^^^^^^^^^^^^^^^^^^^^^^^^^^^^^",
"^^^^^^^^^^^^^^^^^^^^ ^^^^^^^^^^^ ^",
"^^^^^^^^^^^^^^^^^^^o7X^^^^^^^^^X7 ",
"^^^^^^^^^^,*##>###:od6@333-^^^ 6d ",
"|||||||||,VzkkPkkkHod7uLQQc-^^X7d ",
"|||||||| NQzkkPkkkH$gf5iQQQi^ 6fg ",
"???????? NQzkkPkkkH3QEyiQQQi^ sEQ ",
"???????? NQzkkPkkkH3QQCaCQQi rLQQ ",
"|||||||| NQAlMTZkZLpVQQNiQQi HQQV ",
"|||||||| NQQATQQZQQH3QQCaKQi4LQQ3^",
"|||||||| NQQQQQQQQQLpVQQNeN4NQQV,^",
"???????? NQQQQQQQQQLpVQQKNNNKQQV,^",
"???????? NQQQQQQQQLpVQQQQQQQQQQQV ",
"?        NQQQQQQQQH3QQ!GBQQQQ~vLQ ",
",NNNNt00=NQQQQQQQQH3QQD8iQQBCF&HQ ",
"3QQQSxq<+NQQQQQQQQH3UbnNCQQCKVNmb ",
"3QQK;#O  NQQQQQQQQH3JhbVcQcVQeKjh ",
"3QK1???? NQQQQQQQQRVwJUN@3@%3.HI9^",
"2WH ^^^^ %VQQQQQQQQRVeQYHHHHHHRe^^",
".21^^^^^  %333333333:.333333333^^^",
"^^^^^^^^ NQ3^ HQ ^^^^^^iQi^ NQ3^^^",
"^^^^^^^^   ^^^   ^^^^^^^  ^^   ^^^"
};
