/* XPM */
static char *result[] = {
/* columns rows colors chars-per-pixel */
"35 21 166 2 ",
"   c black",
".  c #010101",
"X  c #020202",
"o  c #040404",
"O  c gray3",
"+  c #090909",
"@  c gray4",
"#  c #0C0C0C",
"$  c gray5",
"%  c #0E0E0E",
"&  c gray6",
"*  c #111111",
"=  c gray7",
"-  c #131313",
";  c gray8",
":  c #151515",
">  c #161616",
",  c #181818",
"<  c #1B1B1B",
"1  c gray11",
"2  c #1D1D1D",
"3  c gray13",
"4  c #232323",
"5  c gray14",
"6  c #252525",
"7  c #262424",
"8  c gray15",
"9  c #272727",
"0  c #2A2727",
"q  c gray16",
"w  c gray17",
"e  c gray18",
"r  c #3D2727",
"t  c #392E2E",
"y  c #3C2F2F",
"u  c #313131",
"i  c #323232",
"p  c gray20",
"a  c #333433",
"s  c #333633",
"d  c gray21",
"f  c #333833",
"g  c #333A33",
"h  c #333D33",
"j  c #333E33",
"k  c #3A3A3A",
"l  c gray23",
"z  c gray24",
"x  c #551212",
"c  c #402727",
"v  c #472331",
"b  c #334033",
"n  c #335033",
"m  c #335233",
"M  c #335A33",
"N  c #337133",
"B  c #337733",
"V  c #414141",
"C  c #464646",
"Z  c #4A4646",
"A  c gray29",
"S  c #4B4B4B",
"D  c gray30",
"F  c gray31",
"G  c #505050",
"H  c gray32",
"J  c #535353",
"K  c gray33",
"L  c #565656",
"P  c gray34",
"I  c #5A5A5A",
"U  c gray36",
"Y  c #5D5D5D",
"T  c gray37",
"R  c #734F5D",
"E  c #606060",
"W  c gray38",
"Q  c gray39",
"!  c #646464",
"~  c gray40",
"^  c #676767",
"/  c #686868",
"(  c DimGray",
")  c #6A6A6A",
"_  c #717171",
"`  c gray45",
"'  c gray46",
"]  c #767676",
"[  c gray47",
"{  c #797979",
"}  c #7B7B7B",
"|  c #7C7C7C",
" . c gray49",
".. c #7E7E7E",
"X. c gray50",
"o. c #8C083A",
"O. c #982D56",
"+. c #A45271",
"@. c #926978",
"#. c #817878",
"$. c #338033",
"%. c #338633",
"&. c #339933",
"*. c #AC6882",
"=. c #AC6982",
"-. c #808080",
";. c #818181",
":. c #868686",
">. c #8A8080",
",. c #898989",
"<. c gray54",
"1. c #8B8B8B",
"2. c gray55",
"3. c #8E8E8E",
"4. c #918686",
"5. c #948888",
"6. c #909090",
"7. c #929292",
"8. c #939393",
"9. c gray59",
"0. c #9B9191",
"q. c gray60",
"w. c #9B9999",
"e. c #9B9B9B",
"r. c #9E9999",
"t. c gray61",
"y. c #AF8D8D",
"u. c #B88F9E",
"i. c #A39999",
"p. c #A69999",
"a. c #A29A9D",
"s. c #A39EA0",
"d. c #BC9BA8",
"f. c #A4A4A4",
"g. c gray65",
"h. c gray66",
"j. c #A9A9A9",
"k. c gray69",
"l. c #B1B1B1",
"z. c gray70",
"x. c #B4B4B4",
"c. c gray71",
"v. c #BEB4B4",
"b. c #B9B9B9",
"n. c #BAB8B8",
"m. c gray",
"M. c #D48686",
"N. c #DF8686",
"B. c #C09999",
"V. c #DE9595",
"C. c #DC9999",
"Z. c #E69999",
"A. c #EC9999",
"S. c #F29999",
"D. c #FF9999",
"F. c #C2AEB5",
"G. c #C0C0C0",
"H. c #CACACA",
"J. c gray80",
"K. c None",
"A+ c #193131",
"B+ c #214a31",
"C+ c #527b6b",
"D+ c #4a523a",
"E+ c #527b3a",
"F+ c #adc542",
/* pixels */
"K.K.K.K.K.K.K.K.# $ $ $ $ $ $ $ $ $ $ $ $ $ $ $ $ $ # K.K.K.K.K.K.K.K.",
"K.K.K.K.K.K.K.K.Y t.t.t.t.t.t.t.t.t.f.g.g.s.a.s.g.g.' & K.K.K.K.K.K.K.",
"K.K.K.K.K.K.  C } G G G G G G G G G c.J.J.=.O.*.J.J.m.2.* K.K.K.K.K.K.",
"A+A+A+A+A+A+  D -.p p p p p p p p p k.J.J.+.o.+.J.J.J.g.* K.K.K.K.K.K.",
"A+A+A+A+A+A+  D -.p n $.$.$.$.N h p k.J.J.F.d.F.J.J.J.g.* K.K.K.K.K.K.",
"B+B+B+B+B+B+  D -.p M &.&.&.&.%.b p k.J.-.~ @.u.J.J.J.g.* K.K.  K.K.K.",
"B+B+B+B+B+B+  D -.p M &.&.&.&.%.b p k.] P L v R J.J.J.g.* K.  L J 1 K.",
"B+B+B+B+B+B+  D -.p M &.&.&.&.%.b p k.p ` q.T K g.J.J.g.& K.k q.6.3 K.",
"C+C+C+C+C+C+  D -.p M &.&.&.&.%.b p k.p ` q.q.' Y -.-./ > k q.q.6.3 K.",
"C+C+C+C+C+C+  D -.p M &.&.&.&.%.b p k.p ` q.q.9.W p p u V 6.q.q.6.3 K.",
"C+C+C+C+C+C+  D -.p M &.&.&.&.%.b p _ S ;.q.q.q.q.q.q.q.q.q.q.q.8.A < ",
"D+D+D+D+D+    D -.p M &.&.&.&.%.b p @ ` q.q.j.e.:.q.q.q.q.q.z.[ 7.:.9 ",
"D+D+5 9 9 9 % D -.p M &.&.&.&.%.b p @ ` q.q.l.[ D q.q.7.X.q.G.;  .:.9 ",
". , -.q.1.:.p D -.p M &.&.&.&.%.b p @ ` i.p.Z - L q.q.-.z q.- 7 >.4.0 ",
"O I {  .e : O D -.p m %.%.%.%.B j p @ ` C.S.y.} ;.q.3...<.q.) 5.V.M.r ",
"E+@ @ @ X     D -.p s g g g g f a p @ ` Z.D.B.Q H q.! 6 6.q.@ p.A.N.c ",
"E+E+E+E+E+E+  D -.p p p t x t p p h.x.l #.p.r.E @ ; # o = ;   w.0.y K.",
"F+F+F+F+F+F+  @ ( b.b.b.n.v.n.b.b.H.J.b.l ^ q.7.:.:.:.:.:.:.:.,.e K.K.",
"F+F+F+F+F+F+  w J p p p p p p p p p p p $ , 8 8 8 8 8 8 8 8 8 6 K.K.K.",
"K.K.K.K.K.K.  d | G   K.% ( U & K.K.K.K.K.K.  q ( F   K.2 ( (   K.K.K.",
"K.K.K.K.K.K.  > k p K.K.K.k i + K.K.K.K.K.K.K.4 k w   K.1 k k   K.K.K."
};
