/* XPM */
static char *result[] = {
/* columns rows colors chars-per-pixel */
"35 21 152 2 ",
"   c black",
".  c #010101",
"X  c #040404",
"o  c #060606",
"O  c #070707",
"+  c gray4",
"@  c gray6",
"#  c #101010",
"$  c #111111",
"%  c gray7",
"&  c #131313",
"*  c gray8",
"=  c #161616",
"-  c #181818",
";  c gray10",
":  c #1B1B1B",
">  c #1D1D1D",
",  c #1E1E1E",
"<  c gray12",
"1  c #221D1D",
"2  c #2E1C1C",
"3  c #301D1D",
"4  c gray13",
"5  c #222222",
"6  c #232323",
"7  c gray15",
"8  c #272727",
"9  c #282828",
"0  c gray17",
"q  c #2F2F2F",
"w  c #392E2E",
"e  c #3A2E2E",
"r  c gray20",
"t  c #343434",
"y  c #353636",
"u  c #3E3533",
"i  c #363A38",
"p  c #363A39",
"a  c #373B39",
"s  c #373C3A",
"d  c #383B39",
"f  c #3A3A3A",
"g  c gray23",
"h  c #3C3C3C",
"j  c #551212",
"k  c #491F2F",
"l  c #65062A",
"z  c #4B323C",
"x  c #3C4743",
"c  c #3D4B45",
"v  c #3F4E48",
"b  c #414141",
"n  c #434343",
"m  c gray27",
"M  c #464646",
"N  c #484848",
"B  c gray29",
"V  c #4C4C4C",
"C  c gray30",
"Z  c gray31",
"A  c #465F55",
"S  c #505050",
"D  c #515151",
"F  c gray32",
"G  c #535353",
"H  c gray33",
"J  c #565656",
"K  c #5B5252",
"L  c gray35",
"P  c gray36",
"I  c #5F5F5F",
"U  c #734F5D",
"Y  c #49665B",
"T  c #4B695D",
"R  c #4C6E61",
"E  c #4E7264",
"W  c #527B6B",
"Q  c #606060",
"!  c #626262",
"~  c DimGray",
"^  c #6C6C6C",
"/  c gray43",
"(  c #6F6F6F",
")  c gray44",
"_  c #727272",
"`  c gray45",
"'  c gray46",
"]  c #767676",
"[  c #7B7B7B",
"{  c #7C7C7C",
"}  c gray49",
"|  c #8C083A",
" . c #982D56",
".. c #835063",
"X. c #A45271",
"o. c #817878",
"O. c #CA7C7C",
"+. c #AC6882",
"@. c #AC6982",
"#. c #808080",
"$. c #868686",
"%. c #888888",
"&. c #8B8B8B",
"*. c #8D8D8D",
"=. c #8E8E8E",
"-. c #958D90",
";. c #909090",
":. c gray57",
">. c #929292",
",. c #939393",
"<. c #979193",
"1. c gray58",
"2. c gray59",
"3. c #9E9191",
"4. c #989898",
"5. c gray60",
"6. c #9E9999",
"7. c gray62",
"8. c #B38093",
"9. c #A79090",
"0. c #A69999",
"q. c #AC9999",
"w. c #B39999",
"e. c #B89999",
"r. c #BC9BA8",
"t. c #A0A0A0",
"y. c gray64",
"u. c gray65",
"i. c #B1B1B1",
"p. c #BEB4B4",
"a. c #B9B9B9",
"s. c #BAB8B8",
"d. c #BCBCBC",
"f. c gray",
"g. c #C09999",
"h. c #D09292",
"j. c #EF9090",
"k. c #EA9797",
"l. c #E69999",
"z. c #EC9999",
"x. c #FF9999",
"c. c #C2AEB5",
"v. c #C0C0C0",
"b. c #CACACA",
"n. c gray80",
"m. c None",
"A+ c #193131",
"B+ c #214a31",
"C+ c #527b6b",
"D+ c #4a523a",
"E+ c #527b3a",
"F+ c #adc542",
/* pixels */
"m.m.m.m.m.m.m.m.                                      m.m.m.m.m.m.m.m.",
"m.m.m.m.m.m.m.m.L ;.;.;.;.;.;.;.;.;.2.5.5.<.-.<.5.5.( , m.m.m.m.m.m.m.",
"m.m.m.m.m.m.  M [ S S S S S S S S S 7.n.n.@. .+.n.n.f.=.$ m.m.m.m.m.m.",
"A+A+A+A+A+A+  C #.r r r r r r r r r ,.n.n.X.| X.n.n.n.u.$ m.m.m.m.m.m.",
"A+A+A+A+A+A+  C #.r x T T T T A i r ,.n.n.c.r.c.n.n.n.u.$ m.m.m.m.m.m.",
"B+B+B+B+B+B+  C #.r v W W W W R s r ,.^ C ..X.8.n.n.n.u.$ m.    m.m.m.",
"B+B+B+B+B+B+  C #.r v W W W W R s r G G C k l X.n.n.n.u.@   C B ; m.m.",
"        B+B+  C #.r v W W W W R s r & ` 5.) z U n.n.n.u.5 J 5.;.< m.m.",
"X q f @   C+  C #.r v W W W W R s r & ` 5.5.) H #.#.#._ J 5.5.;.< m.m.",
"o F =.F @     C #.r v W W W W R s r & ` 5.5.5.' f f f V ,.5.5.;.< m.m.",
". @ I %.b *   C #.r v W W W W R s 9 7 { 5.5.5.2.;.;.;.:.4.5.5.>.h m.m.",
"D+    N &.~ = C #.r v W W W W R s O Q 5.5.i.2.' 5.5.5.5.y.v.Q 5.;.> m.",
"D+D+    J ` 0 C #.r v W W W W R s O Q 5.5.i.^ f 5.5.&.} t.v.  5.;.> m.",
"D+D+D+        C #.r v W W W W R s O Q q.w.K 8 F 5.5./ n ' 8 8 w.9.1 m.",
"E+E+E+E+E+E+  C #.r c E E E E Y a O Q l.x.g.:.*.5.1.*.4.1.$.5.x.j.3 m.",
"E+E+E+E+E+E+  C #.r y s d u d p t 9 P h.z.e.I g } ! g ] ! & 5.k.O.2 m.",
"E+E+E+E+E+E+  C #.r r r w j w r r y.Z o.0.6.J O * @ O % @   5.3.e m.m.",
"F+F+F+F+F+F+  + ~ a.a.a.s.p.s.a.a.b.d.g J 5.:.$.$.$.$.$.$.$.5.& m.m.m.",
"F+F+F+F+  m } } D 7 7 7 7 7 7 7 7 7 7 + @ > > > > > > > > > > m.m.m.m.",
"m.m.m.m.  C 5./ &     = ` J # m.m.m.m.m.  N ` N   m.0 ^ J   m.m.m.m.m.",
"m.m.m.m.  & 7 -   m.m.O 7 6 m.m.m.m.m.m.m.4 7 -   m.: 7 6 m.m.m.m.m.m."
};
