/* XPM */
static char *result[] = {
/* columns rows colors chars-per-pixel */
"35 21 163 2 ",
"   c black",
".  c #040404",
"X  c gray3",
"o  c gray4",
"O  c #0C0C0C",
"+  c gray5",
"@  c #0E0E0E",
"#  c gray6",
"$  c #111111",
"%  c gray7",
"&  c #131313",
"*  c gray8",
"=  c #151515",
"-  c #161616",
";  c #181818",
":  c #1B1B1B",
">  c gray11",
",  c #1D1D1D",
"<  c gray13",
"1  c #232323",
"2  c gray14",
"3  c #252525",
"4  c #262424",
"5  c gray15",
"6  c #272727",
"7  c #2A2727",
"8  c #2A2A2A",
"9  c gray17",
"0  c gray18",
"q  c #2F2F2F",
"w  c #3D2727",
"e  c #392E2E",
"r  c #3C2F2F",
"t  c #313131",
"y  c gray20",
"u  c #333434",
"i  c #343534",
"p  c #353535",
"a  c #353736",
"s  c #353837",
"d  c #363A38",
"f  c #363A39",
"g  c #373C3A",
"h  c gray22",
"j  c #3A3A3A",
"k  c gray23",
"l  c gray24",
"z  c #551212",
"x  c #402727",
"c  c #472331",
"v  c #3C4743",
"b  c #3D4944",
"n  c #3F4E48",
"m  c #414141",
"M  c #444444",
"N  c #464646",
"B  c #4A4646",
"V  c gray29",
"C  c #4B4B4B",
"Z  c gray30",
"A  c gray31",
"S  c #465F55",
"D  c #505050",
"F  c gray32",
"G  c #535353",
"H  c gray33",
"J  c #565656",
"K  c gray34",
"L  c #5A5A5A",
"P  c #5D5D5D",
"I  c gray37",
"U  c #734F5D",
"Y  c #486358",
"T  c #4B695D",
"R  c #4C6E61",
"E  c #527B6B",
"W  c #606060",
"Q  c gray38",
"!  c gray39",
"~  c #646464",
"^  c gray40",
"/  c #676767",
"(  c #686868",
")  c DimGray",
"_  c #6A6A6A",
"`  c #717171",
"'  c gray45",
"]  c gray46",
"[  c #767676",
"{  c gray47",
"}  c #7B7B7B",
"|  c gray49",
" . c #7E7E7E",
".. c gray50",
"X. c #8C083A",
"o. c #982D56",
"O. c #A45271",
"+. c #926978",
"@. c #817878",
"#. c #AC6882",
"$. c #AC6982",
"%. c #808080",
"&. c #818181",
"*. c #868686",
"=. c #8A8080",
"-. c #898989",
";. c gray54",
":. c #8B8B8B",
">. c gray55",
",. c #8E8E8E",
"<. c #918686",
"1. c #948888",
"2. c #909090",
"3. c #929292",
"4. c #939393",
"5. c #959595",
"6. c gray59",
"7. c #9B9191",
"8. c gray60",
"9. c #9B9999",
"0. c #9B9B9B",
"q. c #9E9999",
"w. c gray61",
"e. c #AF8D8D",
"r. c #B88F9E",
"t. c #A39999",
"y. c #A69999",
"u. c #A29A9D",
"i. c #A39EA0",
"p. c #BC9BA8",
"a. c #A4A4A4",
"s. c gray65",
"d. c gray66",
"f. c #A9A9A9",
"g. c gray69",
"h. c #B1B1B1",
"j. c gray70",
"k. c #B4B4B4",
"l. c gray71",
"z. c #BEB4B4",
"x. c #B9B9B9",
"c. c #BAB8B8",
"v. c gray",
"b. c #D48686",
"n. c #DF8686",
"m. c #C09999",
"M. c #DE9595",
"N. c #DC9999",
"B. c #E69999",
"V. c #EC9999",
"C. c #F29999",
"Z. c #FF9999",
"A. c #C2AEB5",
"S. c #C0C0C0",
"D. c #CACACA",
"F. c gray80",
"G. c None",
"A+ c #193131",
"B+ c #214a31",
"C+ c #527b6b",
"D+ c #4a523a",
"E+ c #527b3a",
"F+ c #adc542",
/* pixels */
"G.G.G.G.G.G.G.G.O + + + + + + + + + + + + + + + + + O G.G.G.G.G.G.G.G.",
"G.G.G.G.G.G.G.G.P w.w.w.w.w.w.w.w.w.a.s.s.i.u.i.s.s.] # G.G.G.G.G.G.G.",
"G.G.G.G.G.G.  N } D D D D D D D D D l.F.F.$.o.#.F.F.v.>.$ G.G.G.G.G.G.",
"A+A+A+A+A+A+  Z %.y y y y y y y y y g.F.F.O.X.O.F.F.F.s.$ G.G.G.G.G.G.",
"A+A+A+A+A+A+  Z %.y v T T T T S d y g.F.F.A.p.A.F.F.F.s.$ G.G.G.G.G.G.",
"B+B+B+B+B+B+  Z %.y n E E E E R g y g.F.%.^ +.r.F.F.F.s.$ G.G.  G.G.G.",
"B+B+B+B+B+B+  Z %.y n E E E E R g y g.[ K J c U F.F.F.s.$ G.  J G > G.",
"B+B+B+B+B+B+  Z %.y n E E E E R g y g.y ' 8.I H s.F.F.s.# G.j 8.2.< G.",
"C+C+C+C+C+C+  Z %.y n E E E E R g y g.y ' 8.8.] P %.%.( - j 8.8.2.< G.",
"C+C+C+C+C+C+  Z %.y n E E E E R g y g.y ' 8.8.6.Q y y t m 2.8.8.2.< G.",
"C+C+C+C+C+C+  Z %.y n E E E E R g y ` C &.8.8.8.8.8.8.8.8.8.8.8.4.V : ",
"D+D+D+D+1 6 @ Z %.y n E E E E R g y o ' 8.8.f.0.*.8.8.8.8.8.j.{ 3.*.6 ",
"D+D+2 6 | 8.j Z %.y n E E E E R g y o ' 8.8.h.{ Z 8.8.3...8.S.* | *.6 ",
"D+, %.:.*.*.y Z %.y n E E E E R g y o ' t.y.B & J 8.8.%.l 8.& 4 =.<.7 ",
"o ` 5.p - ; X Z %.y b R R R R Y f y o ' N.C.e.} &.8.,. .;.8._ 1.M.b.w ",
"o | 8.6 E+E+  Z %.y i s s s s a u y o ' B.Z.m.! F 8.~ 3 2.8.o y.V.n.x ",
"E+& * E+E+E+  Z %.y y y e z e y y d.k.k @.y.q.W o * O . % *   9.7.r G.",
"F+F+F+F+F+F+  o ) x.x.x.c.z.c.x.x.D.F.x.k / 8.3.*.*.*.*.*.*.*.-.0 G.G.",
"F+F+F+F+F+F+A ' G y y y y y y y y y y y + ; 5 5 5 5 5 5 5 5 5 3 G.G.G.",
"G.G.G.G.G.  L 2.V     = ) A # G.G.G.G.G.G.  M ) p     = ! )   G.G.G.G.",
"G.G.G.G.G.  2 j 8 G.G.G.j 9 X G.G.G.G.G.G.G.q j ,   G.G.h j   G.G.G.G."
};
