/* XPM */
static char *result[] = {
/* columns rows colors chars-per-pixel */
"35 21 157 2 ",
"   c black",
".  c gray2",
"X  c #070707",
"o  c gray3",
"O  c gray4",
"+  c #0C0C0C",
"@  c gray5",
"#  c #0E0E0E",
"$  c gray6",
"%  c #111111",
"&  c gray7",
"*  c #131313",
"=  c gray8",
"-  c gray10",
";  c #1B1B1B",
":  c gray11",
">  c #1D1D1D",
",  c #1F1D1D",
"<  c gray12",
"1  c #2E1D1D",
"2  c #301D1D",
"3  c #202020",
"4  c #232323",
"5  c gray14",
"6  c #252525",
"7  c gray15",
"8  c #272727",
"9  c gray16",
"0  c #2A2A2A",
"q  c #2F2F2F",
"w  c #392E2E",
"e  c #3A2E2E",
"r  c gray19",
"t  c #323232",
"y  c gray20",
"u  c #333434",
"i  c #343534",
"p  c #353535",
"a  c gray21",
"s  c #353837",
"d  c #363A38",
"f  c #363A39",
"g  c #373C3A",
"h  c #3A3A3A",
"j  c gray23",
"k  c #5A0C0C",
"l  c #600628",
"z  c #472331",
"x  c #3C4743",
"c  c #3D4944",
"v  c #3F4E48",
"b  c gray25",
"n  c #444444",
"m  c #464646",
"M  c #4A4646",
"N  c #484848",
"B  c #4B4B4B",
"V  c #4C4C4C",
"C  c gray30",
"Z  c gray31",
"A  c #505050",
"S  c gray32",
"D  c #535353",
"F  c gray33",
"G  c #565656",
"H  c gray34",
"J  c #585858",
"K  c #5A5A5A",
"L  c #5B5B5B",
"P  c gray36",
"I  c #5D5D5D",
"U  c gray37",
"Y  c #4B695D",
"T  c #4C6E61",
"R  c #527B6B",
"E  c #606060",
"W  c #626262",
"Q  c gray40",
"!  c #676767",
"~  c DimGray",
"^  c #6A6A6A",
"/  c #6C6C6C",
"(  c #6D6D6D",
")  c #6F6F6F",
"_  c gray44",
"`  c #727272",
"'  c gray45",
"]  c gray46",
"[  c gray48",
"{  c #7B7B7B",
"}  c gray49",
"|  c #8C083A",
" . c #982D56",
".. c #835063",
"X. c #A45271",
"o. c #926978",
"O. c #817878",
"+. c #AC6882",
"@. c #AC6982",
"#. c #AC6A83",
"$. c #808080",
"%. c #818181",
"&. c #868686",
"*. c #898989",
"=. c #8B8B8B",
"-. c gray55",
";. c #8E8E8E",
":. c #909090",
">. c gray57",
",. c #929292",
"<. c #939393",
"1. c #959595",
"2. c #979797",
"3. c #9B9090",
"4. c #9E9191",
"5. c gray60",
"6. c #9E9999",
"7. c gray61",
"8. c gray62",
"9. c #9F9F9F",
"0. c #AF8D8D",
"q. c #B88F9E",
"w. c #A39999",
"e. c #A69999",
"r. c #A29A9D",
"t. c #A39EA0",
"y. c #BC9BA8",
"u. c #A0A0A0",
"i. c #A2A2A2",
"p. c gray64",
"a. c gray65",
"s. c #A9A9A9",
"d. c #B1B1B1",
"f. c gray70",
"g. c #BFB3B3",
"h. c #B9B9B9",
"j. c #BAB8B8",
"k. c #BCBCBC",
"l. c gray",
"z. c #C09999",
"x. c #DC9999",
"c. c #E39090",
"v. c #EF9090",
"b. c #E69999",
"n. c #F29999",
"m. c #FF9999",
"M. c #C2AEB5",
"N. c #C0C0C0",
"B. c #CACACA",
"V. c gray80",
"C. c None",
"A+ c #193131",
"B+ c #214a31",
"C+ c #527b6b",
"D+ c #4a523a",
"E+ c #527b3a",
"F+ c #adc542",
/* pixels */
"C.C.C.C.C.C.C.C.C.+ @ @ @ @ @ @ @ @ @ @ @ @ @ @ @ @ @ + C.C.C.C.C.C.C.",
"C.C.C.C.C.C.C.C.C.I 7.7.7.7.7.7.7.7.7.i.a.a.t.r.t.a.a.] > C.C.C.C.C.C.",
"C.C.C.C.C.C.C.C.m { A A A A A A A A A 8.V.V.@. .+.V.V.l.;.% C.C.C.C.C.",
"A+A+A+A+A+A+A+  C $.y y y y y y y y y <.V.V.X.| X.V.V.V.a.% C.C.C.C.C.",
"A+A+A+A+A+A+A+  C $.y x Y Y Y Y Y d y <.V.V.M.y.M.V.V.V.a.% C.C.C.C.C.",
"B+B+B+B+B+B+B+  C $.y v R R R R R g y <.$.Q o.#.q.V.V.V.a.% C.  C.C.C.",
"B+B+B+B+B+B+B+  C $.y v R R R R R g y B H G z l X.V.V.V.a.#   G D - C.",
"B+B+B+B+B+B+B+  C $.y v R R R R R g y * ' 5.U z ..V.V.V.a.; h 5.:.< C.",
"C+C+C+C+C+C+C+  C $.y v R R R R R g y * ' 5.5._ F $.$.$.` G 5.5.:.< C.",
"C+6 9 9 O   C+  C $.y v R R R R R g y * ' 5.5.1.( y y y n -.5.5.:.< C.",
"  V ;.5.S h >   C $.y v R R R R R g 4 r %.5.5.5.5.5.5.5.5.5.5.5.<.B C.",
"  O W ' ' ' C % C $.y v R R R R R g X E 5.5.s.2.%.5.5.5.5.9.f.' 5.:.> ",
"D+D+        h y C $.y v R R R R R g X E 5.5.d./ h 5.5.=.} u.N.  5.:.> ",
"D+D+D+D+D+      C $.y v R R R R R g X E w.e.M * m 5.5.! p ) * * e.3., ",
"E+E+E+E+E+E+E+  C $.y c T T T T T f X E x.n.0.[ { 5.,.$.*.-.^ &.n.c.1 ",
"E+E+E+E+E+E+E+  C $.y i s s s s s u X E b.m.z.L b 5.] b :.] O 5.m.v.2 ",
"E+E+E+E+E+E+E+  C $.y y y w k w y y p.Z O.e.6.G X = $ X & $   5.4.e C.",
"F+F+F+F+F+      O ~ h.h.h.j.g.j.h.h.B.k.j G 5.>.&.&.&.&.&.&.&.5.* C.C.",
"F+F+F+F+  Z ' ' N - y y y y y y y y y y @ * 7 7 7 7 7 7 7 7 7 7 C.C.C.",
"C.C.C.C.  K :.J 4   : ~ P   C.C.C.C.C.C.  a ~ j     : ~ G o C.C.C.C.C.",
"C.C.C.C.  5 h 8 C.C.; h t   C.C.C.C.C.C.C.0 h 3   C.; h q . C.C.C.C.C."
};
