/* XPM */
static char *result[] = {
/* columns rows colors chars-per-pixel */
"35 21 157 2 ",
"   c black",
".  c #040404",
"X  c gray2",
"o  c #070707",
"O  c #090909",
"+  c gray4",
"@  c #0C0C0C",
"#  c gray5",
"$  c #0E0E0E",
"%  c gray6",
"&  c #111111",
"*  c #131313",
"=  c gray8",
"-  c #161616",
";  c #181818",
":  c gray10",
">  c #1B1B1B",
",  c gray11",
"<  c #1D1D1D",
"1  c gray12",
"2  c #221D1D",
"3  c #2E1C1C",
"4  c #301D1D",
"5  c #222222",
"6  c #232323",
"7  c gray15",
"8  c #272727",
"9  c #2D2626",
"0  c #282828",
"q  c gray17",
"w  c #2C2C2C",
"e  c #2F2F2F",
"r  c #392E2E",
"t  c gray19",
"y  c gray20",
"u  c #333433",
"i  c #333633",
"p  c #353535",
"a  c #333833",
"s  c #333A33",
"d  c #333D33",
"f  c #333E33",
"g  c #3A3A3A",
"h  c gray23",
"j  c #3C3C3C",
"k  c gray24",
"l  c #551212",
"z  c #4B323C",
"x  c #334033",
"c  c #335033",
"v  c #335233",
"b  c #335A33",
"n  c #337133",
"m  c #337733",
"M  c #434343",
"N  c #464646",
"B  c #484848",
"V  c gray29",
"C  c #4C4C4C",
"Z  c gray30",
"A  c #505050",
"S  c #515151",
"D  c gray32",
"F  c #535353",
"G  c gray33",
"H  c #565656",
"J  c gray34",
"K  c #5B5252",
"L  c #585858",
"P  c gray35",
"I  c gray36",
"U  c #5D5D5D",
"Y  c #5F5F5F",
"T  c #734F5D",
"R  c #606060",
"E  c #626262",
"W  c gray39",
"Q  c DimGray",
"!  c #6C6C6C",
"~  c gray43",
"^  c gray44",
"/  c #727272",
"(  c gray45",
")  c gray46",
"_  c #767676",
"`  c #7A7575",
"'  c gray47",
"]  c #7B7B7B",
"[  c #7C7C7C",
"{  c gray49",
"}  c #8C083A",
"|  c #982D56",
" . c #A45271",
".. c #856873",
"X. c #89747C",
"o. c #CA7C7C",
"O. c #338033",
"+. c #338633",
"@. c #339933",
"#. c #AC6882",
"$. c #AC6982",
"%. c #808080",
"&. c #818181",
"*. c #868686",
"=. c #8B8B8B",
"-. c #8D8D8D",
";. c #8E8E8E",
":. c #909090",
">. c gray57",
",. c #929292",
"<. c #939393",
"1. c #979090",
"2. c gray58",
"3. c gray59",
"4. c #989898",
"5. c gray60",
"6. c #9B9999",
"7. c gray61",
"8. c gray62",
"9. c #B88F9E",
"0. c #A79090",
"q. c #A09999",
"w. c #A29A9D",
"e. c #AC9999",
"r. c #B39999",
"t. c #B89999",
"y. c #A39EA0",
"u. c #BC9BA8",
"i. c #A0A0A0",
"p. c #A2A2A2",
"a. c gray64",
"s. c gray65",
"d. c gray66",
"f. c #B1B1B1",
"g. c gray71",
"h. c #BEB4B4",
"j. c #B9B9B9",
"k. c #BAB8B8",
"l. c gray",
"z. c #C09999",
"x. c #D09292",
"c. c #EF9090",
"v. c #EA9797",
"b. c #E69999",
"n. c #EC9999",
"m. c #FF9999",
"M. c #C2AEB5",
"N. c #C0C0C0",
"B. c #CACACA",
"V. c gray80",
"C. c None",
"A+ c #193131",
"B+ c #214a31",
"C+ c #527b6b",
"D+ c #4a523a",
"E+ c #527b3a",
"F+ c #adc542",
/* pixels */
"C.C.C.C.C.C.C.C.@ # # # # # # # # # # # # # # # # # @ C.C.C.C.C.C.C.C.",
"C.C.C.C.C.C.C.C.U 7.7.7.7.7.7.7.7.7.p.s.s.y.w.y.s.s.) < C.C.C.C.C.C.C.",
"C.C.C.C.C.C.  N ] A A A A A A A A A 8.V.V.$.| #.V.V.l.;.& C.C.C.C.C.C.",
"A+A+A+A+A+A+  Z %.y y y y y y y y y <.V.V. .}  .V.V.V.s.& C.C.C.C.C.C.",
"A+A+A+A+A+A+  Z %.y c O.O.O.O.n d y <.P y X.u.M.V.V.V.s.& C.    C.C.C.",
"B+B+B+B+B+B+  Z %.y b @.@.@.@.+.x y F F Z U ..9.V.V.V.s.%   Z V : C.C.",
"B+B+B+B+B+B+  Z %.y b @.@.@.@.+.x y * ( 5.^ z T V.V.V.s.5 H 5.:.1 C.C.",
"B+B+B+B+B+B+  Z %.y b @.@.@.@.+.x y * ( 5.5.^ G %.%.%./ H 5.5.:.1 C.C.",
"C+p g > C+C+  Z %.y b @.@.@.@.+.x y * ( 5.5.5.) g g g C <.5.5.:.1 C.C.",
"+ _ :.7 C+C+  Z %.y b @.@.@.@.+.x 0 7 [ 5.5.5.3.:.:.:.>.4.5.5.,.j C.C.",
"O L ;.D g g - Z %.y b @.@.@.@.+.x o R 5.5.f.3.) 5.5.5.5.a.N.R 5.:.< C.",
"D+@ E ( :.5.g Z %.y b @.@.@.@.+.x o R 5.5.f.! g 5.5.=.{ i.N.  5.:.< C.",
"D+D+    I ( q Z %.y b @.@.@.@.+.x o R e.r.K 8 D 5.5.~ M ) 8 8 r.0.2 C.",
"D+D+D+D+      Z %.y b @.@.@.@.+.x o R b.m.z.>.-.5.2.-.4.2.*.5.m.c.4 C.",
"E+E+E+E+E+E+  Z %.y v +.+.+.+.m f % D x.n.t.Y h { E h _ E * 5.v.o.3 C.",
"E+E+E+E+E+E+  Z %.y i s s s s a u t ; ` q.6.H . + o . O o   5.1.9 C.C.",
"E+E+E+E+E+E+  Z %.y y y r l r y y d.g.h H 5.>.*.*.*.*.*.*.*.5.* C.C.C.",
"F+F+F+F+  B y + Q j.j.j.k.h.k.j.j.B.V.j.W = = = = = = = = = = C.C.C.C.",
"F+F+F+  I *.&.B : y y y y y y y y y y y :           q H O C.C.C.C.C.C.",
"C.C.C.  ! :.S 6   : Q J   C.C.C.C.C.C.  p Q k     , ' / @ C.C.C.C.C.C.",
"C.C.C.  q g 6 C.  $ g p C.C.C.C.C.C.C.  < g w C.C.> g e X C.C.C.C.C.C."
};
