/* XPM */
static char *result[] = {
/* columns rows colors chars-per-pixel */
"35 21 153 2 ",
"   c black",
".  c #040404",
"X  c gray2",
"o  c #090909",
"O  c gray4",
"+  c #0C0C0C",
"@  c #0E0E0E",
"#  c #101010",
"$  c #111111",
"%  c gray7",
"&  c #131313",
"*  c gray8",
"=  c #161616",
"-  c #181818",
";  c #1B1B1B",
":  c gray11",
">  c #1D1D1D",
",  c gray12",
"<  c gray13",
"1  c gray15",
"2  c #272727",
"3  c #2D2727",
"4  c gray17",
"5  c gray18",
"6  c #3C2424",
"7  c #392E2E",
"8  c #3C2F2F",
"9  c #3A392C",
"0  c gray20",
"q  c #333533",
"w  c #353535",
"e  c #383535",
"r  c #333833",
"t  c #333D33",
"y  c #333E33",
"u  c #343F32",
"i  c #3A3A3A",
"p  c gray23",
"a  c gray24",
"s  c #551212",
"d  c #491F2F",
"f  c #402727",
"g  c #334033",
"h  c #335033",
"j  c #335533",
"k  c #335A33",
"l  c #337133",
"z  c #337C33",
"x  c #434343",
"c  c #464646",
"v  c #484848",
"b  c gray29",
"n  c #4C4C4C",
"m  c gray30",
"M  c #505050",
"N  c #515151",
"B  c gray32",
"V  c #535353",
"C  c gray33",
"Z  c #555555",
"A  c #565656",
"S  c gray34",
"D  c #5B5252",
"F  c #585858",
"G  c gray35",
"H  c gray36",
"J  c #5D5D5D",
"K  c #784F5F",
"L  c #606060",
"P  c #626262",
"I  c #676767",
"U  c #686868",
"Y  c DimGray",
"T  c #6C6C6C",
"R  c #6F6F6F",
"E  c gray44",
"W  c gray45",
"Q  c gray46",
"!  c #767676",
"~  c gray47",
"^  c #7B7B7B",
"/  c #7C7C7C",
"(  c gray49",
")  c gray50",
"_  c #8C083A",
"`  c #982D56",
"'  c #835063",
"]  c #A45271",
"[  c #817878",
"{  c #BF7575",
"}  c #338033",
"|  c #338633",
" . c #338C33",
".. c #339933",
"X. c #AC6882",
"o. c #AC6982",
"O. c #808080",
"+. c #848484",
"@. c #868686",
"#. c #898989",
"$. c gray54",
"%. c gray55",
"&. c #8E8E8E",
"*. c #988484",
"=. c #9C8686",
"-. c #958D90",
";. c #909090",
":. c #929292",
">. c #939393",
",. c #979193",
"<. c gray58",
"1. c #979797",
"2. c #9B9191",
"3. c #989898",
"4. c gray60",
"5. c #9B9999",
"6. c #9E9999",
"7. c gray61",
"8. c #B38093",
"9. c #A49999",
"0. c #A69999",
"q. c #AC9999",
"w. c #B39999",
"e. c #B89999",
"r. c #BC9BA8",
"t. c gray65",
"y. c gray66",
"u. c gray69",
"i. c #B1B1B1",
"p. c #B4B4B4",
"a. c gray71",
"s. c #BEB4B4",
"d. c #B9B9B9",
"f. c #BAB8B8",
"g. c gray",
"h. c #DF8686",
"j. c #C09999",
"k. c #D09292",
"l. c #DB9797",
"z. c #E69999",
"x. c #EC9999",
"c. c #FF9999",
"v. c #C2AEB5",
"b. c #C0C0C0",
"n. c #CACACA",
"m. c gray80",
"M. c None",
"A+ c #193131",
"B+ c #214a31",
"C+ c #527b6b",
"D+ c #4a523a",
"E+ c #527b3a",
"F+ c #adc542",
/* pixels */
"M.M.M.M.M.M.M.M.                                      M.M.M.M.M.M.M.M.",
"M.M.M.M.M.M.M.M.G ;.;.;.;.;.;.;.;.;.1.4.4.,.-.,.4.4.R $ M.M.M.M.M.M.M.",
"M.M.M.M.M.M.  c ^ M M M M M M M M M a.m.m.o.` X.m.m.g.%.$ M.M.M.M.M.M.",
"A+A+A+A+A+A+  m O.0 0 0 0 0 0 0 0 0 u.m.m.] _ ] m.m.m.t.$ M.M.M.M.M.M.",
"A+A+A+A+A+A+  m O.0 h } } } } l t 0 u.m.m.v.r.v.m.m.m.t.$ M.M.M.M.M.M.",
"B+B+B+B+B+B+  m O.0 k ........| g 0 u.m.T m ' 8.m.m.m.t.$ M.M.    M.M.",
"B+B+B+B+B+B+  m O.0 k ........| g 0 u.O.V m d K m.m.m.t.$ M.  m b ; M.",
"B+B+B+B+B+B+  m O.0 k ........| g 0 u.0 W 4.E S >.m.m.t.@   A 4.;.< M.",
"C+C+C+C+C+C+  m O.0 k ........| g 0 u.0 W 4.4.Q J O.O.U = i 4.4.;.< M.",
"C+w i ; C+C+  m O.0 k ........| g 0 u.0 W 4.4.4.Y i i i N 4.4.4.;.< M.",
"O ! ;.1 C+C+  m O.0 k ........| g 0 @.x / 4.4.4.<.;.;.;.:.4.4.4.:.a M.",
"o F &.B i i = m O.0 k ........| g 0 O W 4.4.i.7./ 4.4.4.4.4.b.I &.@.2 ",
"D++ P W ;.4.i m O.0 k ........| g 0 O W 4.4.i.~ m 4.4.:.) 4.b.* ( @.2 ",
"D+D+    H W 4 m O.0 k ........| g 0 O W q.w.D 2 L 4.4.+.b 4.2 e *.=.3 ",
"E+E+E+E+      m O.0 j  . . . .z y 0 O W z.c.j.:.;.4.:.$.3.4.@.0.x.h.f ",
"E+E+E+E+E+E+  m O.0 r g u 9 u t q n 5 I k.x.e.I v ( Z 2 ! ( & 9.l.{ 6 ",
"E+E+E+E+E+E+  m O.0 0 0 7 s 7 0 0 y.p.p [ 0.6.L O * + . % *   5.2.8 M.",
"F+F+F+F+F+F+  O Y d.d.d.f.s.f.d.d.n.m.d.p I 4.:.@.@.@.@.@.@.@.#.5 M.M.",
"F+F+F+F+F+F+C ( N 1 1 1 1 1 1 1 1 1 1 1 O % > > > > > > > > > : M.M.M.",
"M.M.M.M.M.  L 4.m     = W A # M.M.M.M.M.M.  v W i     = T W   M.M.M.M.",
"M.M.M.M.M.  - 1 , M.M.M.1 > X M.M.M.M.M.M.M.< 1 &   M.M.1 1   M.M.M.M."
};
