/* XPM */
static char *result[] = {
/* columns rows colors chars-per-pixel */
"35 21 75 1 ",
"  c black",
". c #131313",
"X c #1D1D1D",
"o c gray12",
"O c #30261D",
"+ c #202020",
"@ c #232323",
"# c gray15",
"$ c #393939",
"% c #403326",
"& c #604D39",
"* c #402640",
"= c #4D394D",
"- c gray26",
"; c #434343",
": c #494343",
"> c gray30",
", c #565656",
"< c gray36",
"1 c #6D5742",
"2 c #73604D",
"3 c #664D66",
"4 c #704370",
"5 c #734D73",
"6 c #606060",
"7 c #666360",
"8 c #666066",
"9 c #6C6C6C",
"0 c gray45",
"q c #7C7C7C",
"w c #80664D",
"e c #805966",
"r c #BF7373",
"t c #BF9973",
"y c #804D80",
"u c #BF73BF",
"i c #FF4DB3",
"p c #CF69BC",
"a c #CF7CCF",
"s c #FF60C6",
"d c #FF66CC",
"f c #FF73D9",
"g c #868686",
"h c gray56",
"j c #939393",
"k c gray60",
"l c #AC9999",
"z c #B39999",
"x c gray65",
"c c #ACACAC",
"v c gray75",
"b c #C98F8F",
"n c #E69999",
"m c #FF9999",
"M c #DFB386",
"N c #FFB9BF",
"B c #FFCC99",
"V c #FFC2AC",
"C c #FF8FD9",
"Z c #FFB3CC",
"A c #FF80E6",
"S c #FF86EC",
"D c #FF8CF2",
"F c #FF9FF2",
"G c #FF93F9",
"H c #FF99FF",
"J c #FFA6E6",
"K c #FFA3EC",
"L c None",
"E c #ff0000",
"I c #ff9900",
"P c #ffff00",
"Q c #33ff00",
"R c #0099ff",
"T c #6633ff",

/* pixels */
"LLLLLLLL                   LLLLLLLL",
"LLLLLLL wBBBBBBBBBBBBBBBBBw LLLLLLL",
"LLLLLLL1MBVJJJJJJJJJJJJJNBM1 LLLLLL",
"LLLLLL wBNKHHHHHiHHiSHHHFNBw LLLLLL",
"EEEEEE wNFSsHHHHAHHAGHHHHFNw LLLLLL",
"EEEEEE wZHGSHHHHHHHH4*asfHZw LL  LL",
"IIIIII wZHHHHHHHHHH*80=pDHZw L@00 L",
"IIIIII wZHHHHHHdHHH 0k65uHZw o6kk L",
"IIIIII wZHHHHHHdHHH 0kk63ye%.6kkk L",
"PPPPPP wZHHDfHHHHHH 0kkk0>>>6kkkk L",
"PPPPPP wZHHDfHHHdHy>gkkkkkkkkkkkk> ",
"PPP    wZAfHHHHHdH kkkv90kkkkxc6kk ",
"  ->>>#wZAfHHHHHHH kkkg+>kk06j6#kk ",
" #qkq0$wZHHHHGAHHH klz:#6kk6;q#:zz ",
" 000X  wNFGSHSiHHH knmzqgkggkhqzmm ",
"R    R wBNCsHHHHHH*0bnl#$0$$0,#lnr ",
"RRRRRR &MBVJJJJJJJJ%7hk;######;h0 L",
"RRRRRR .2tttttttttttO,000000000< LL",
"TTTTTT >>                       LLL",
"TTTTTT >k> L#kk LLLLLL 0k>  #k0 LLL",
"LLLLLL    LLL   LLLLLLL    LL   LLL"
};
