/* XPM */
static char *result[] = {
/* columns rows colors chars-per-pixel */
"35 21 196 2 ",
"   c black",
".  c #010101",
"X  c #020202",
"o  c #040404",
"O  c #060606",
"+  c #070707",
"@  c #09090B",
"#  c #090B0A",
"$  c #0E0E0E",
"%  c gray6",
"&  c #0E0D10",
"*  c #100F12",
"=  c #100F13",
"-  c #101010",
";  c gray7",
":  c #131313",
">  c gray8",
",  c #161616",
"<  c gray9",
"1  c #171C1A",
"2  c #181818",
"3  c gray10",
"4  c #1B1B1B",
"5  c #1D1D1D",
"6  c gray12",
"7  c #1C1B21",
"8  c #1E1F20",
"9  c gray13",
"0  c #222222",
"q  c #232323",
"w  c #222124",
"e  c gray14",
"r  c gray15",
"t  c #272727",
"y  c #212328",
"u  c #24232A",
"i  c #22252A",
"p  c gray17",
"a  c #2F2F2F",
"s  c #313336",
"d  c #38363F",
"f  c #333F3A",
"g  c #35393F",
"h  c #3A3A3A",
"j  c gray23",
"k  c #35413C",
"l  c #413F4D",
"z  c #414141",
"x  c #434343",
"c  c gray27",
"v  c #484848",
"b  c gray29",
"n  c #4C4C4C",
"m  c gray30",
"M  c #44534D",
"N  c #44544E",
"B  c #474454",
"V  c #485550",
"C  c #4F5854",
"Z  c #505053",
"A  c gray32",
"S  c #505553",
"D  c #555557",
"F  c #565656",
"G  c #545658",
"H  c #545B58",
"J  c #5B5E5C",
"K  c #5F5F5F",
"L  c #56625D",
"P  c #53655E",
"I  c #585467",
"U  c #606060",
"Y  c #626262",
"T  c #676767",
"R  c DimGray",
"E  c gray42",
"W  c #6C6C6C",
"Q  c gray43",
"!  c #6F6F6F",
"~  c #60766D",
"^  c #676379",
"/  c #6B667D",
"(  c #6B697B",
")  c gray44",
"_  c #727272",
"`  c gray45",
"'  c gray46",
"]  c #767676",
"[  c #7A7C7E",
"{  c gray49",
"}  c #847E9B",
"|  c #738285",
" . c #728B81",
".. c #769086",
"X. c #7D998E",
"o. c #868686",
"O. c #81858A",
"+. c #888888",
"@. c #8B8B8B",
"#. c #8D8D8D",
"$. c #8E8E8E",
"%. c #909090",
"&. c gray57",
"*. c #939393",
"=. c gray58",
"-. c #94969A",
";. c #989898",
":. c gray60",
">. c #9A9B9C",
",. c #82A094",
"<. c #88A79B",
"1. c #8BAA9E",
"2. c #8D89A6",
"3. c #8E89A6",
"4. c #8E88A7",
"5. c #8D8BA6",
"6. c #9D9FA2",
"7. c #9A93B5",
"8. c #9995B4",
"9. c #9996B4",
"0. c #919DB1",
"q. c #8EAEA1",
"w. c #9EA1A6",
"e. c #A0A4AB",
"r. c #A2A6AE",
"t. c #A4AAB3",
"y. c #A3ADBC",
"u. c #A0C4B6",
"i. c #A1C6B8",
"p. c #ABA4C9",
"a. c #AEA9CC",
"s. c #B0A8CE",
"d. c #AEBACD",
"f. c #AEBBCF",
"g. c #AAB9D0",
"h. c #B0BDD1",
"j. c #BDB7DD",
"k. c #BDB5DE",
"l. c #BDB6DE",
"z. c #BDB8DD",
"x. c #BCBBDC",
"c. c #BCBCDC",
"v. c #8AC9C3",
"b. c #8DCAC4",
"n. c #8ECBC4",
"m. c #90CCC5",
"M. c #91CCC5",
"N. c #96CFC6",
"B. c #99D0C7",
"V. c #9CD1C8",
"C. c #9CD2C8",
"Z. c #ADD4C4",
"A. c #A0D4C9",
"S. c #A1D4C9",
"D. c #A3D5C9",
"F. c #A6D6CA",
"G. c #A7D7CB",
"H. c #A5D1CC",
"J. c #A9D8CB",
"K. c #ACDACC",
"L. c #ADDACC",
"P. c #AEDBCC",
"I. c #AFDBCC",
"U. c #AFDBCD",
"Y. c #B0DCCD",
"T. c #B1DCCD",
"R. c #B2DDCD",
"E. c #B3DDCE",
"W. c #B6DCCF",
"Q. c #B4DECE",
"!. c #B5DECE",
"~. c #B7C6D6",
"^. c #BAC7D7",
"/. c #B9C9D7",
"(. c #B9CAD6",
"). c #B9CBD6",
"_. c #B8CFD4",
"`. c #B5C5DE",
"'. c #BBC1D9",
"]. c #BAC3D9",
"[. c #BAC5D8",
"{. c #B3D5D0",
"}. c #B4D5D0",
"|. c #B5D6D1",
" X c #B6D6D1",
".X c #B7D7D1",
"XX c #B7D5D2",
"oX c #B6D8D0",
"OX c #B6DAD0",
"+X c None",
"A+ c #d62942",
"B+ c #d66b29",
"C+ c #d6b529",
"D+ c #73d629",
"E+ c #29adce",
"F+ c #5a52de",
/* pixels */
"+X+X+X+X+X+X+X+X                                      +X+X+X+X+X+X+X+X",
"+X+X+X+X+X+X+X+XI 4.3.5.5.5.5.5.5.5.5.5.5.5.5.5.2.4.^ 7 +X+X+X+X+X+X+X",
"+X+X+X+X+X+X  l p.l.]..X.X.X.X X{. X.X}.|..X.X.X).j.s.} * +X+X+X+X+X+X",
"A+A+A+A+A+A+  B k.c.XX!.!.!.!.L.M.Y.!.N.S.!.!.!.oX/.k.7.= +X+X+X+X+X+X",
"A+A+A+A+A+A+  B [..XD.b.!.!.!.R.G.E.!.J.L.!.!.!.!.W./.8.= +X+X+X+X+X+X",
"B+B+B+B+B+B+  B (.!.K.S.!.!.!.!.!.!.!.~ M 1.!.F.V.!._.9.= +X    +X+X+X",
"B+B+B+B+B+B+  B (.!.!.!.!.!.!.!.!.!.X.S m L ,.J.S.!._.9.&   m b 3 +X+X",
"        B+B+  B (.!.!.!.!.!.Y.C.T.!.N ` :.) H ..!.!._.9.w F :.%.6 +X+X",
"o a h %   C+  B (.!.!.!.!.!.Y.B.Y.!.N ` :.:.) C  . .| ( D :.:.%.6 +X+X",
"O A $.A %     B (.!.!.T.A.!.!.!.!.!.N ` :.:.:.' h h h n *.:.:.%.6 +X+X",
". % K +.z >   B (.!.!.L.n.!.!.Z.q.<.f F ` ` ` ! R R R E _ ` ` W < +X+X",
"D+    v @.R , B (.I.F.!.!.!.!.u.P # e h 5         $ h a o           +X",
"D+D+    F ` p B (.J.N.!.!.!.!.!.!.1 U :.U %     $ x @.T 0     X 5 + +X",
"D+D+D+        B (.!.!.!.!.T.J.E.!.1 U w.e.G t t A :.Q x ' t t g O.8 +X",
"E+E+E+E+E+E+  B ^.OXR.P.!.G.v.P.!.1 U d.`.t.&.#.:.=.#.;.=.o.:.`.g.i +X",
"E+E+E+E+E+E+  B z.'.H.m.!.E.U.Q.!.k J y.h.r.K j { Y j ] Y : :.f.0.y +X",
"E+E+E+E+E+E+  B k.l.~.I.!.!.!.!.!.i.V [ 6.>.F + > % + ; %   :.-.s +X+X",
"F+F+F+F+F+F+  @ / k.j.x.x.x.x.x.x.x.a.d F :.&.o.o.o.o.o.o.o.:.: +X+X+X",
"F+F+F+F+  c { { Z u u u u u u u u u u @ % 5 5 5 5 5 5 5 5 5 5 +X+X+X+X",
"F+F+F+F+  m :.Q :     , ` F - +X+X+X+X+X  v ` v   +Xp W F   +X+X+X+X+X",
"+X+X+X+X  : r 2   +X+X+ r q +X+X+X+X+X+X+X9 r 2   +X4 r q +X+X+X+X+X+X"
};
