/* XPM */
static char *result[] = {
/* columns rows colors chars-per-pixel */
"35 21 202 2 ",
"   c black",
".  c #020202",
"X  c #040404",
"o  c gray2",
"O  c #070707",
"+  c #050909",
"@  c #090909",
"#  c #09090B",
"$  c gray4",
"%  c #0B0B0D",
"&  c #0C0B0D",
"*  c #0C0C0C",
"=  c #0C0C0E",
"-  c #0E0E0E",
";  c gray6",
":  c #0E0D10",
">  c #100F12",
",  c #100F13",
"<  c #131313",
"1  c gray8",
"2  c #161616",
"3  c gray9",
"4  c #18171C",
"5  c #111919",
"6  c #171C1A",
"7  c gray10",
"8  c #1B1B1B",
"9  c gray11",
"0  c #1D1D1D",
"q  c gray12",
"w  c #1B1A20",
"e  c #1E1F20",
"r  c #222222",
"t  c #232323",
"y  c #222124",
"u  c gray14",
"i  c gray15",
"p  c #272727",
"a  c #212328",
"s  c #22252A",
"d  c #28292A",
"f  c gray17",
"g  c #2C2C2C",
"h  c #2F2F2F",
"j  c #2F2D38",
"k  c #253432",
"l  c gray20",
"z  c #353535",
"x  c #333F3A",
"c  c #35393F",
"v  c #363F3C",
"b  c #3A3A3A",
"n  c gray23",
"m  c gray24",
"M  c #35413C",
"N  c #413F4D",
"B  c #3D5A58",
"V  c #434343",
"C  c #484848",
"Z  c gray29",
"A  c #4C4C4C",
"S  c gray30",
"D  c #44544E",
"F  c #46544F",
"G  c #474454",
"H  c #435B57",
"J  c #4F5854",
"K  c #515151",
"L  c gray32",
"P  c #505553",
"I  c #555557",
"U  c #565656",
"Y  c gray34",
"T  c #545658",
"R  c #545B58",
"E  c #585858",
"W  c #5B5E5C",
"Q  c gray36",
"!  c #5F5F5F",
"~  c #56625D",
"^  c #5B586B",
"/  c #5D596B",
"(  c #606060",
")  c #626262",
"_  c #676767",
"`  c DimGray",
"'  c gray42",
"]  c #6C6C6C",
"[  c gray43",
"{  c #6F6F6F",
"}  c #6B667D",
"|  c #6B697B",
" . c #6C687F",
".. c gray44",
"X. c #727272",
"o. c gray45",
"O. c gray46",
"+. c #767676",
"@. c #777779",
"#. c gray47",
"$. c gray49",
"%. c #847E9B",
"&. c #6B8B83",
"*. c #738285",
"=. c #728B81",
"-. c #7D998E",
";. c #818181",
":. c #868686",
">. c #81858A",
",. c #8B8B8B",
"<. c #8D8D8D",
"1. c #8E8E8E",
"2. c #909090",
"3. c gray57",
"4. c #939393",
"5. c #929395",
"6. c gray58",
"7. c #989898",
"8. c gray60",
"9. c #9A9A9B",
"0. c #9B9C9E",
"q. c #82A094",
"w. c #88A79B",
"e. c #9A93B5",
"r. c #9995B4",
"t. c #9A94B4",
"y. c #9996B4",
"u. c #919DB1",
"i. c #8DADA1",
"p. c #9EA1A6",
"a. c #A0A4AB",
"s. c #A2A6AE",
"d. c #A4AAB3",
"f. c #A3ADBC",
"g. c #9BC2B5",
"h. c #A7CDBE",
"j. c #ABA4C9",
"k. c #ABA6C9",
"l. c #B0A8CE",
"z. c #AEBACD",
"x. c #AEBBCF",
"c. c #AAB9D0",
"v. c #B0BDD1",
"b. c #BDB7DD",
"n. c #BDB5DE",
"m. c #BDB6DE",
"M. c #BCBDDB",
"N. c #BCBBDC",
"B. c #83C5C2",
"V. c #8AC9C3",
"C. c #8DCAC4",
"Z. c #90CCC5",
"A. c #91CCC5",
"S. c #93CDC6",
"D. c #96CFC6",
"F. c #99D0C7",
"G. c #9AD1C7",
"H. c #9CD2C8",
"J. c #9ED3C8",
"K. c #ABD2C3",
"L. c #AAD2C4",
"P. c #A1D4C9",
"I. c #A3D5C9",
"U. c #A3D5CA",
"Y. c #A4D6CA",
"T. c #A7D7CA",
"R. c #A7D7CB",
"E. c #A9D8CB",
"W. c #AAD9CB",
"Q. c #ABD9CC",
"!. c #ACDACC",
"~. c #AEDACC",
"^. c #AFDBCC",
"/. c #AFDBCD",
"(. c #B0DCCD",
"). c #B1DCCD",
"_. c #B2DDCD",
"`. c #B3DDCE",
"'. c #B6DCCF",
"]. c #B4DECE",
"[. c #B5DECE",
"{. c #B7C6D6",
"}. c #B9C9D7",
"|. c #B9CAD6",
" X c #B9CCD5",
".X c #B8CFD4",
"XX c #B5C5DE",
"oX c #BBC1D9",
"OX c #BBC2D9",
"+X c #BAC5D8",
"@X c #BAC6D8",
"#X c #B7D7D1",
"$X c #B6D8D0",
"%X c #B6D8D1",
"&X c #B6DAD0",
"*X c None",
"A+ c #d62942",
"B+ c #d66b29",
"C+ c #d6b529",
"D+ c #73d629",
"E+ c #29adce",
"F+ c #5a52de",
/* pixels */
"*X*X*X*X*X*X*X*X% = = = = = = = = = = = = = = = = = & *X*X*X*X*X*X*X*X",
"*X*X*X*X*X*X*X*X^ e.t.y.y.y.y.y.y.y.y.y.y.y.y.y.r.e. .w *X*X*X*X*X*X*X",
"*X*X*X*X*X*X  N j.n.OX#X#X#X#X#X#X#X#X#X#X#X#X#X|.n.l.%.> *X*X*X*X*X*X",
"A+A+A+A+A+A+  G n.M.%X[.[.[.[.!.V./.[.Z.H.[.[.[.&X Xn.e., *X*X*X*X*X*X",
"A+A+A+A+A+A+  G +X#XI.C.[.[.[._.R.`.[.H k q.[.[.[.'.}.r., *X    *X*X*X",
"B+B+B+B+B+B+  G |.[.E.G.[.[.[.[.[.[.-.P S ~ q.E.P.[..Xy.:   S Z 7 *X*X",
"B+B+B+B+B+B+  G |.[.[.[.[.[.[.[.[.[.D o.8...R &.U.[..Xy.y U 8.2.q *X*X",
"B+B+B+B+B+B+  G |.[.[.[.[.[._.Y._.[.D o.8.8...J =.=.*.| I 8.8.2.q *X*X",
"C+z b 8 C+C+  G |.[.[.[.[.[.(.F.(.[.D o.8.8.8.O.b b b A 4.8.8.2.q *X*X",
"$ +.2.i C+C+  G |.[.[._.T.[.[.L.i.w.x U o.o.o.{ ` ` ` ' X.o.o.] 3 *X*X",
"@ E 1.L b b 2 G |.[.[.~.A.[.[.g.B + u b 0         - b h X           *X",
"D+* ) o.2.8.b G |.).Q.[.[.[.[.!.V.5 ( 8.( ;     - V ,._ r     . 0 O *X",
"D+D+    Q o.f G |.E.D.[.[.[.[.[.[.6 ( p.a.T p p L 8.[ V O.p p c >.e *X",
"D+D+D+D+      G |.[.[.[.[.`./.].[.6 ( z.XXd.3.<.8.6.<.7.6.:.8.XXc.s *X",
"E+E+E+E+E+E+  G @X$X(.Q.[.W.S./.[.M W f.v.s.! n $.) n +.) < 8.x.u.a *X",
"E+E+E+E+E+E+  G m.oXJ.B.[.]._.[.[.K.F @.0.9.U X $ O X @ O   8.5.d *X*X",
"E+E+E+E+E+E+  G n.m.{.^.[.[.[.[.[.[.h.v U 8.3.:.:.:.:.:.:.:.8.< *X*X*X",
"F+F+F+F+  C l # } n.b.N.N.N.N.N.N.N.N.k./ 1 1 1 1 1 1 1 1 1 1 *X*X*X*X",
"F+F+F+  Q :.;.C 4 j j j j j j j j j j j 4           f U @ *X*X*X*X*X*X",
"*X*X*X  ] 2.K t   7 ` Y   *X*X*X*X*X*X  z ` m     9 #.X.* *X*X*X*X*X*X",
"*X*X*X  f b t *X  - b z *X*X*X*X*X*X*X  0 b g *X*X8 b h o *X*X*X*X*X*X"
};
