/* XPM */
static char *result[] = {
/* columns rows colors chars-per-pixel */
"35 21 183 2 ",
"   c black",
".  c #020202",
"X  c #040404",
"o  c gray2",
"O  c #090909",
"+  c #09090B",
"@  c gray4",
"#  c #0C0C0C",
"$  c gray6",
"%  c #0D100F",
"&  c #0D0D10",
"*  c #100F12",
"=  c #100F13",
"-  c #101010",
";  c gray7",
":  c #131313",
">  c gray8",
",  c #161616",
"<  c #161617",
"1  c #181818",
"2  c gray10",
"3  c #1B1B1B",
"4  c gray11",
"5  c #1D1D1D",
"6  c gray12",
"7  c gray13",
"8  c gray15",
"9  c #272727",
"0  c #222A27",
"q  c #232A27",
"w  c #24232A",
"e  c #272829",
"r  c #28292B",
"t  c gray17",
"y  c gray18",
"u  c #2B2F34",
"i  c #2D3834",
"p  c #2E3238",
"a  c #353535",
"s  c #333538",
"d  c #33373C",
"f  c #38363F",
"g  c #363F3C",
"h  c #3A3A3A",
"j  c #413F4D",
"k  c #3E4C46",
"l  c #434343",
"z  c #484848",
"x  c gray29",
"c  c gray30",
"v  c #44534D",
"b  c #474454",
"n  c #515151",
"m  c #505053",
"M  c gray32",
"N  c #505553",
"B  c gray33",
"V  c #555555",
"C  c #565656",
"Z  c #545658",
"A  c #545A58",
"S  c #585858",
"D  c gray36",
"F  c #4D625C",
"G  c #56625D",
"H  c #585467",
"J  c #605C71",
"K  c #606060",
"L  c #626262",
"P  c #676767",
"I  c #666867",
"U  c DimGray",
"Y  c #6C6C6C",
"T  c gray43",
"R  c #60766D",
"E  c #676379",
"W  c #6B667D",
"Q  c gray44",
"!  c gray45",
"~  c gray46",
"^  c #767676",
"/  c #7A7C7E",
"(  c gray49",
")  c #777A80",
"_  c #827C98",
"`  c #738285",
"'  c #718B81",
"]  c #728B81",
"[  c #70938B",
"{  c #848484",
"}  c #868686",
"|  c #898989",
" . c gray54",
".. c #8E8E8E",
"X. c #909090",
"o. c #929292",
"O. c #949598",
"+. c #989898",
"@. c gray60",
"#. c #9A9A9A",
"$. c #9A9B9C",
"%. c #82A094",
"&. c #88A79B",
"*. c #8BAA9E",
"=. c #8E89A6",
"-. c #8E88A7",
";. c #8D8BA6",
":. c #8995A7",
">. c #9C9EA0",
",. c #9D9FA2",
"<. c #9A93B5",
"1. c #8BADA1",
"2. c #9EA1A6",
"3. c #A0A4AB",
"4. c #A2A6AE",
"5. c #A4AAB3",
"6. c #A3ADBC",
"7. c #A3C8B9",
"8. c #9FADC2",
"9. c #ABA4C9",
"0. c #ABA6C9",
"q. c #B0A8CE",
"w. c #AAB4C5",
"e. c #AEBACD",
"r. c #B0BDD1",
"t. c #BDB7DD",
"y. c #BDB5DE",
"u. c #BDB6DE",
"i. c #BDB8DD",
"p. c #BCBBDC",
"a. c #BCBCDC",
"s. c #8AC9C3",
"d. c #8DCAC4",
"f. c #8ECBC4",
"g. c #90CCC5",
"h. c #91CCC5",
"j. c #96CFC6",
"k. c #99D0C7",
"l. c #9CD2C8",
"z. c #A0D4C9",
"x. c #A1D4C9",
"c. c #A3D5C9",
"v. c #A5D6CA",
"b. c #A6D6CA",
"n. c #A7D7CA",
"m. c #A7D7CB",
"M. c #A5D1CC",
"N. c #A9D8CB",
"B. c #ABD9CB",
"V. c #ACDACC",
"C. c #ADDACC",
"Z. c #AEDBCC",
"A. c #AFDBCC",
"S. c #AFDBCD",
"D. c #B0DCCD",
"F. c #B1DCCD",
"G. c #B2DDCD",
"H. c #B3DDCE",
"J. c #B6DCCF",
"K. c #B4DECE",
"L. c #B5DECE",
"P. c #B7C6D6",
"I. c #BAC7D7",
"U. c #B9C9D7",
"Y. c #B9CAD6",
"T. c #B8CFD4",
"R. c #B5C5DE",
"E. c #BBC1D9",
"W. c #BAC3D9",
"Q. c #BAC5D8",
"!. c #B3D5D0",
"~. c #B4D5D0",
"^. c #B6D6D1",
"/. c #B7D7D1",
"(. c #B7D5D2",
"). c #B6DAD0",
"_. c None",
"A+ c #d62942",
"B+ c #d66b29",
"C+ c #d6b529",
"D+ c #73d629",
"E+ c #29adce",
"F+ c #5a52de",
/* pixels */
"_._._._._._._._.                                      _._._._._._._._.",
"_._._._._._._._.H -.=.;.;.;.;.;.;.;.;.;.;.;.;.;.=.-.E * _._._._._._._.",
"_._._._._._.  j 9.u.W././././.^.!.^./.~.^./././.I.t.q._ * _._._._._._.",
"A+A+A+A+A+A+  b y.a.(.L.L.L.L.C.h.D.L.j.B.L.L.L./.U.y.<.= _._._._._._.",
"A+A+A+A+A+A+  b Q./.c.d.L.L.L.G.m.H.L.N.F.L.L.L.L.J.U.<.= _._._._._._.",
"B+B+B+B+B+B+  b Y.L.V.x.L.L.L.L.L.L.L.L.R v *.b.x.L.T.<.= _._.    _._.",
"B+B+B+B+B+B+  b Y.L.L.L.L.L.L.L.L.L.L.' N c G [ v.L.T.<.= _.  c x 3 _.",
"B+B+B+B+B+B+  b Y.L.L.L.L.L.D.l.F.L.L.i ! @.Q A %.L.T.<.&   C @.X.7 _.",
"C+C+C+C+C+C+  b Y.L.L.L.L.L.D.k.D.L.L.i ! @.@.~ G ] ` J < h @.@.X.7 _.",
"C+a h 3 C+C+  b Y.L.L.F.z.L.L.L.L.L.L.i ! @.@.@.U h h h n @.@.@.X.7 _.",
"@ ^ X.8 C+C+  b Y.L.L.C.f.L.L.G.n.1.&.0 C ! ! ! T U U U Y ! ! ! Y 1 _.",
"O S ..M h h , b Y.A.b.L.L.L.L.C.h.F % t h ,         , h t             ",
"D+# L ! X.@.h b Y.N.j.L.L.L.L.L.L.L.q ! @.M $     @ M o.L 9     . 2 @ ",
"D+D+    D ! t b Y.L.L.L.L.F.N.H.L.L.q ! 2.3.Z 9 9 l @.{ x @.9 e d ) r ",
"E+E+E+E+      b I.).G.Z.L.m.s.Z.L.L.q ! e.R.5.o.X.@.o. .+.@.} ,.r.8.p ",
"E+E+E+E+E+E+  b i.E.M.g.L.H.S.K.L.L.k I 6.r.4.P z ( V 9 ^ ( : >.w.:.u ",
"E+E+E+E+E+E+  b y.u.P.A.L.L.L.L.L.L.7.g / ,.$.K @ > # X ; >   #.O.s _.",
"F+F+F+F+F+F+  + W y.t.p.p.p.p.p.p.p.p.0.f P @.o.} } } } } } } | y _._.",
"F+F+F+F+F+F+B ( m w w w w w w w w w w w + ; 5 5 5 5 5 5 5 5 5 4 _._._.",
"_._._._._.  K @.c     , ! C - _._._._._._.  z ! h     , Y !   _._._._.",
"_._._._._.  1 8 6 _._._.8 5 o _._._._._._._.7 8 :   _._.8 8   _._._._."
};
