/* XPM */
static char *result[] = {
/* columns rows colors chars-per-pixel */
"35 21 197 2 ",
"   c black",
".  c #010101",
"X  c #020202",
"o  c #040404",
"O  c gray3",
"+  c #090909",
"@  c #09090B",
"#  c #090B0A",
"$  c gray4",
"%  c #0B0B0D",
"&  c #0C0B0D",
"*  c #0C0B0E",
"=  c #0C0C0C",
"-  c #0C0C0E",
";  c #0E0E0E",
":  c gray6",
">  c #0E0E11",
",  c #100F12",
"<  c #100F13",
"1  c gray7",
"2  c #131313",
"3  c gray8",
"4  c #151515",
"5  c #161616",
"6  c #161617",
"7  c #181818",
"8  c gray10",
"9  c gray11",
"0  c #1D1D1D",
"q  c #1C2320",
"w  c #1F2023",
"e  c gray13",
"r  c #232323",
"t  c gray14",
"y  c #252525",
"u  c gray15",
"i  c #272727",
"p  c #232A27",
"a  c #272829",
"s  c gray16",
"d  c gray17",
"f  c gray18",
"g  c #2F2D38",
"h  c #2D3035",
"j  c #2D3834",
"k  c #2E3238",
"l  c #303032",
"z  c #323232",
"x  c gray20",
"c  c #323433",
"v  c #323334",
"b  c #353535",
"n  c gray21",
"m  c #333538",
"M  c #38363F",
"N  c #363F3C",
"B  c #3A3A3A",
"V  c gray24",
"C  c #413F4D",
"Z  c #384A46",
"A  c #414141",
"S  c #474849",
"D  c #484848",
"F  c gray31",
"G  c #474454",
"H  c #4F5854",
"J  c #505050",
"K  c gray32",
"L  c #535353",
"P  c #515055",
"I  c #565656",
"U  c #555957",
"Y  c #525D59",
"T  c #5A5A5A",
"R  c gray36",
"E  c gray37",
"W  c #56625D",
"Q  c #5B586B",
"!  c #605C71",
"~  c #5B6F67",
"^  c #606060",
"/  c #616261",
"(  c #626262",
")  c gray39",
"_  c #646464",
"`  c #676767",
"'  c DimGray",
"]  c #6A6A6A",
"[  c #6B667D",
"{  c #6C687F",
"}  c gray45",
"|  c #707275",
" . c gray46",
".. c gray47",
"X. c #797979",
"o. c #7B7B7B",
"O. c #7A7C7E",
"+. c #7C7C7C",
"@. c gray49",
"#. c #7E7E7E",
"$. c #698177",
"%. c #827C98",
"&. c #6B8B83",
"*. c #738285",
"=. c #718B81",
"-. c #728B81",
";. c #77948A",
":. c #808080",
">. c #868686",
",. c #898989",
"<. c gray54",
"1. c #8B8B8B",
"2. c #898B8E",
"3. c #8E8E8E",
"4. c #909090",
"5. c #929292",
"6. c gray59",
"7. c #949598",
"8. c gray60",
"9. c #9A9A9A",
"0. c #9A9B9C",
"q. c #969CA4",
"w. c #9C9DA0",
"e. c #9D9FA2",
"r. c #9A93B5",
"t. c #9A94B4",
"y. c #9A95B4",
"u. c #9996B4",
"i. c #93B5A8",
"p. c #98A4B7",
"a. c #9BA6B8",
"s. c #A4AAB3",
"d. c #A3C8B9",
"f. c #9FADC2",
"g. c #ABA4C9",
"h. c #ABA6C9",
"j. c #B0A8CE",
"k. c #ABB6C6",
"l. c #AEBACD",
"z. c #B0BDD1",
"x. c #BDB7DD",
"c. c #BDB5DE",
"v. c #BDB6DE",
"b. c #BCBDDB",
"n. c #BCBBDC",
"m. c #83C5C2",
"M. c #8AC9C3",
"N. c #8DCAC4",
"B. c #90CCC5",
"V. c #91CCC5",
"C. c #93CDC6",
"Z. c #96CFC6",
"A. c #99D0C7",
"S. c #9AD1C7",
"D. c #9ED3C8",
"F. c #A0D3C9",
"G. c #A3D5C9",
"H. c #A4D6CA",
"J. c #A5D6CA",
"K. c #A7D7CA",
"L. c #A7D7CB",
"P. c #A9D8CB",
"I. c #AAD9CB",
"U. c #ABD9CC",
"Y. c #ACDACC",
"T. c #AEDACC",
"R. c #AFDBCC",
"E. c #AFDBCD",
"W. c #B0DCCD",
"Q. c #B1DCCD",
"!. c #B2DDCD",
"~. c #B3DDCE",
"^. c #B6DCCF",
"/. c #B4DECE",
"(. c #B5DECE",
"). c #B2C0D6",
"_. c #B7C6D6",
"`. c #B9C9D7",
"'. c #B9CAD6",
"]. c #B9CCD5",
"[. c #B8CFD4",
"{. c #B5C5DE",
"}. c #BBC1D9",
"|. c #BBC2D9",
" X c #BAC5D8",
".X c #BAC6D8",
"XX c #B7D7D1",
"oX c #B6D8D0",
"OX c #B6D9D0",
"+X c #B6D8D1",
"@X c None",
"A+ c #d62942",
"B+ c #d66b29",
"C+ c #d6b529",
"D+ c #73d629",
"E+ c #29adce",
"F+ c #5a52de",
/* pixels */
"@X@X@X@X@X@X@X@X% - - - - - - - - - - - - - - - - - & @X@X@X@X@X@X@X@X",
"@X@X@X@X@X@X@X@XQ r.t.u.u.u.u.u.u.u.u.u.u.u.u.u.y.r.{ > @X@X@X@X@X@X@X",
"@X@X@X@X@X@X  C g.c.|.XXXXXXXXXXXXXXXXXXXXXXXXXX.Xc.j.%., @X@X@X@X@X@X",
"A+A+A+A+A+A+  G c.b.+X(.(.(.(.Y.M.E.(.B.P.(.(.(.OX].c.r.< @X@X@X@X@X@X",
"A+A+A+A+A+A+  G  XXXG.N.(.(.(.!.L.~.(.P.Q.(.(.(.(.^.`.r.< @X@X@X@X@X@X",
"B+B+B+B+B+B+  G '.(.P.S.(.(.(.(.(.(.(.(.=.~ i.P.J.(.[.r.< @X@X  @X@X@X",
"B+B+B+B+B+B+  G '.(.(.(.(.(.(.(.(.(.(.$.U I Y &.K.(.[.r.< @X  I L 9 @X",
"B+B+B+B+B+B+  G '.(.(.(.(.(.!.H.!.(.(.j } 8.E H i.(.[.r.> @XB 8.4.e @X",
"C+C+C+C+C+C+  G '.(.(.(.(.(.W.A.W.(.(.j } 8.8. .W -.*.! 6 B 8.8.4.e @X",
"C+C+C+C+C+C+  G '.(.(.!.K.(.(.!.(.(.(.j } 8.8.6./ c v l A 4.8.8.4.e @X",
"C+C+C+C+C+C+  G '.(.(.T.V.(.(.W.F.;.=.q D ^ ^ ^ ^ ^ ^ ^ ^ ^ ^ ^ T 2   ",
"D+D+D+D+D+    G '.Q.U.(.(.(.(.Y.M.Z # 0 i :         : i 0             ",
"D+D+t i i i ; G '.P.Z.(.(.(.(.(.(.(.p } 8.K :     $ K 5.( i     X 8 $ ",
". 7 :.8.1.>.x G '.(.(.(.(.~.E./.(.(.p } w.e.S 2 2 b 8.:.V 8.2 3 w | a ",
"O T X.@.f 4 O G .XoXW.U.(.I.C.E.(.(.p } k.).q.o...1.3.#.<.8.] 2.a.p.h ",
"E+$ $ $ X     G v.}.D.m.(./.!.(.(.(.p } l.{.s.) K 8._ y 4.8.$ e.z.f.k ",
"E+E+E+E+E+E+  G c.v._.R.(.(.(.(.(.(.d.N O.e.0.^ $ 3 = o 1 3   9.7.m @X",
"F+F+F+F+F+F+  @ [ c.x.n.n.n.n.n.n.n.n.h.M ` 8.5.>.>.>.>.>.>.>.,.f @X@X",
"F+F+F+F+F+F+  d P g g g g g g g g g g g * 7 u u u u u u u u u y @X@X@X",
"@X@X@X@X@X@X  n +.J   @X; ' R : @X@X@X@X@X@X  s ' F   @X0 ' '   @X@X@X",
"@X@X@X@X@X@X  5 B x @X@X@XB z + @X@X@X@X@X@X@Xr B d   @X9 B B   @X@X@X"
};
