/* XPM */
static char *result[] = {
/* columns rows colors chars-per-pixel */
"35 21 195 2 ",
"   c black",
".  c #020202",
"X  c #040404",
"o  c gray3",
"O  c #09090B",
"+  c #090B0A",
"@  c gray4",
"#  c #0B0B0D",
"$  c #0C0B0D",
"%  c #0C0B0E",
"&  c #0C0C0C",
"*  c #0C0C0E",
"=  c #0E0E0E",
"-  c gray6",
";  c #0E0E11",
":  c #100F12",
">  c #100F13",
",  c gray7",
"<  c #131313",
"1  c gray8",
"2  c #151515",
"3  c #161616",
"4  c #161617",
"5  c #181818",
"6  c gray10",
"7  c gray11",
"8  c #1D1D1D",
"9  c #1C2320",
"0  c #1F2023",
"q  c gray13",
"w  c #232323",
"e  c gray14",
"r  c #252525",
"t  c gray15",
"y  c #272727",
"u  c #232A27",
"i  c #272829",
"p  c #2A2A2A",
"a  c gray17",
"s  c gray18",
"d  c #2F2F2F",
"f  c #2F2D38",
"g  c #2D3035",
"h  c #2D3834",
"j  c #2E3238",
"k  c #303032",
"l  c gray20",
"z  c #323433",
"x  c #323334",
"c  c #353535",
"v  c #333538",
"b  c #38363F",
"n  c #363F3C",
"m  c gray22",
"M  c #3A3A3A",
"N  c gray24",
"B  c #413F4D",
"V  c #384A46",
"C  c #414141",
"Z  c #444444",
"A  c #474849",
"S  c #484848",
"D  c gray29",
"F  c gray31",
"G  c #474454",
"H  c #4F5854",
"J  c gray32",
"K  c #535353",
"L  c #515055",
"P  c #565656",
"I  c #555957",
"U  c #525D59",
"Y  c #5A5A5A",
"T  c gray37",
"R  c #56625D",
"E  c #5B586B",
"W  c #605C71",
"Q  c #5B6F67",
"!  c #606060",
"~  c #616261",
"^  c #626262",
"/  c gray39",
"(  c #646464",
")  c #676767",
"_  c DimGray",
"`  c #6A6A6A",
"'  c #6B667D",
"]  c #6C687F",
"[  c #717171",
"{  c gray45",
"}  c #707275",
"|  c gray46",
" . c gray47",
".. c #7B7B7B",
"X. c #7A7C7E",
"o. c gray49",
"O. c #7E7E7E",
"+. c #698177",
"@. c #827C98",
"#. c #6B8B83",
"$. c #738285",
"%. c #718B81",
"&. c #728B81",
"*. c #77948A",
"=. c #808080",
"-. c #868686",
";. c #898989",
":. c gray54",
">. c #8B8B8B",
",. c #898B8E",
"<. c #8E8E8E",
"1. c #909090",
"2. c #929292",
"3. c #959595",
"4. c gray59",
"5. c #949598",
"6. c gray60",
"7. c #9A9A9A",
"8. c #9A9B9C",
"9. c #969CA4",
"0. c #9C9DA0",
"q. c #9D9FA2",
"w. c #9A93B5",
"e. c #9A94B4",
"r. c #9A95B4",
"t. c #9996B4",
"y. c #93B5A8",
"u. c #98A4B7",
"i. c #9BA6B8",
"p. c #A4AAB3",
"a. c #A3C8B9",
"s. c #9FADC2",
"d. c #ABA4C9",
"f. c #ABA6C9",
"g. c #B0A8CE",
"h. c #ABB6C6",
"j. c #AEBACD",
"k. c #B0BDD1",
"l. c #BDB7DD",
"z. c #BDB5DE",
"x. c #BDB6DE",
"c. c #BCBDDB",
"v. c #BCBBDC",
"b. c #83C5C2",
"n. c #8AC9C3",
"m. c #8DCAC4",
"M. c #90CCC5",
"N. c #91CCC5",
"B. c #93CDC6",
"V. c #96CFC6",
"C. c #99D0C7",
"Z. c #9AD1C7",
"A. c #9ED3C8",
"S. c #A0D3C9",
"D. c #A3D5C9",
"F. c #A4D6CA",
"G. c #A5D6CA",
"H. c #A7D7CA",
"J. c #A7D7CB",
"K. c #A9D8CB",
"L. c #AAD9CB",
"P. c #ABD9CC",
"I. c #ACDACC",
"U. c #AEDACC",
"Y. c #AFDBCC",
"T. c #AFDBCD",
"R. c #B0DCCD",
"E. c #B1DCCD",
"W. c #B2DDCD",
"Q. c #B3DDCE",
"!. c #B6DCCF",
"~. c #B4DECE",
"^. c #B5DECE",
"/. c #B2C0D6",
"(. c #B7C6D6",
"). c #B9C9D7",
"_. c #B9CAD6",
"`. c #B9CCD5",
"'. c #B8CFD4",
"]. c #B5C5DE",
"[. c #BBC1D9",
"{. c #BBC2D9",
"}. c #BAC5D8",
"|. c #BAC6D8",
" X c #B7D7D1",
".X c #B6D8D0",
"XX c #B6D9D0",
"oX c #B6D8D1",
"OX c None",
"A+ c #d62942",
"B+ c #d66b29",
"C+ c #d6b529",
"D+ c #73d629",
"E+ c #29adce",
"F+ c #5a52de",
/* pixels */
"OXOXOXOXOXOXOXOX# * * * * * * * * * * * * * * * * * $ OXOXOXOXOXOXOXOX",
"OXOXOXOXOXOXOXOXE w.e.t.t.t.t.t.t.t.t.t.t.t.t.t.r.w.] ; OXOXOXOXOXOXOX",
"OXOXOXOXOXOX  B d.z.{. X X X X X X X X X X X X X|.z.g.@.: OXOXOXOXOXOX",
"A+A+A+A+A+A+  G z.c.oX^.^.^.^.I.n.T.^.M.K.^.^.^.XX`.z.w.> OXOXOXOXOXOX",
"A+A+A+A+A+A+  G }. XD.m.^.^.^.W.J.Q.^.K.E.^.^.^.^.!.).w.> OXOXOXOXOXOX",
"B+B+B+B+B+B+  G _.^.K.Z.^.^.^.^.^.^.^.^.%.Q y.K.G.^.'.w.> OXOX  OXOXOX",
"B+B+B+B+B+B+  G _.^.^.^.^.^.^.^.^.^.^.+.I P U #.H.^.'.w.> OX  P K 7 OX",
"B+B+B+B+B+B+  G _.^.^.^.^.^.W.F.W.^.^.h { 6.T H y.^.'.w.; OXM 6.1.q OX",
"C+C+C+C+C+C+  G _.^.^.^.^.^.R.C.R.^.^.h { 6.6.| R &.$.W 4 M 6.6.1.q OX",
"C+C+C+C+C+C+  G _.^.^.W.H.^.^.W.^.^.^.h { 6.6.4.~ z x k C 1.6.6.1.q OX",
"C+C+C+C+C+C+  G _.^.^.U.N.^.^.R.S.*.%.9 S ! ! ! ! ! ! ! ! ! ! ! Y <   ",
"D+D+D+D+w y = G _.E.P.^.^.^.^.I.n.V + 8 y -         - y 8             ",
"D+D+e y o.6.M G _.K.V.^.^.^.^.^.^.^.u { 6.J -     @ J 2.^ y     . 6 @ ",
"D+8 =.>.-.-.l G _.^.^.^.^.Q.T.~.^.^.u { 0.q.A < < c 6.=.N 6.< 1 0 } i ",
"@ [ 3.c 3 5 o G |..XR.P.^.L.B.T.^.^.u { h./.9... .>.<.O.:.6.` ,.i.u.g ",
"@ o.6.y E+E+  G x.[.A.b.^.~.W.^.^.^.u { j.].p./ J 6.( r 1.6.@ q.k.s.j ",
"E+< 1 E+E+E+  G z.x.(.Y.^.^.^.^.^.^.a.n X.q.8.! @ 1 & X , 1   7.5.v OX",
"F+F+F+F+F+F+  O ' z.l.v.v.v.v.v.v.v.v.f.b ) 6.2.-.-.-.-.-.-.-.;.s OXOX",
"F+F+F+F+F+F+F { L f f f f f f f f f f f % 5 t t t t t t t t t r OXOXOX",
"OXOXOXOXOX  Y 1.D     2 _ F - OXOXOXOXOXOX  Z _ c     2 / _   OXOXOXOX",
"OXOXOXOXOX  e M p OXOXOXM a o OXOXOXOXOXOXOXd M 8   OXOXm M   OXOXOXOX"
};
