/* XPM */
static char *result[] = {
/* columns rows colors chars-per-pixel */
"35 21 198 2 ",
"   c black",
".  c #020202",
"X  c gray2",
"o  c #060707",
"O  c #070707",
"+  c gray3",
"@  c #09090B",
"#  c gray4",
"$  c #0B0B0D",
"%  c #0C0B0D",
"&  c #0C0B0E",
"*  c #0C0C0E",
"=  c #0E0E0E",
"-  c gray6",
";  c #0D0D10",
":  c #100F12",
">  c #100F13",
",  c #111111",
"<  c gray7",
"1  c #131313",
"2  c gray8",
"3  c #18171C",
"4  c #171C1A",
"5  c #181818",
"6  c gray10",
"7  c #1B1B1B",
"8  c #1A1A1C",
"9  c gray11",
"0  c #1D1D1D",
"q  c #1D1E1E",
"w  c gray12",
"e  c #1B1A20",
"r  c #1F2124",
"t  c #202020",
"y  c #222222",
"u  c #232323",
"i  c gray14",
"p  c #252525",
"a  c gray15",
"s  c #272727",
"d  c #212428",
"f  c #22252A",
"g  c gray16",
"h  c #2A2A2A",
"j  c #2F2F2F",
"k  c #2F2D38",
"l  c #2B3431",
"z  c #323232",
"x  c gray20",
"c  c #323433",
"v  c #323334",
"b  c #313336",
"n  c #353535",
"m  c gray21",
"M  c #38363F",
"N  c #3A3A3A",
"B  c gray23",
"V  c #413F4D",
"C  c #3F4D47",
"Z  c gray25",
"A  c #434343",
"S  c #444445",
"D  c #464646",
"F  c #474849",
"G  c #484848",
"H  c #4C4C4C",
"J  c gray30",
"K  c gray31",
"L  c #44544E",
"P  c #474454",
"I  c #485550",
"U  c #4F5854",
"Y  c gray32",
"T  c #535353",
"R  c #555557",
"E  c #565656",
"W  c #555957",
"Q  c #525D59",
"!  c #585858",
"~  c #5A5A5A",
"^  c #5B5B5B",
"/  c gray36",
"(  c gray37",
")  c #5B586B",
"_  c #5B6F67",
"`  c #606060",
"'  c #626262",
"]  c #676767",
"[  c DimGray",
"{  c #6A6A6A",
"}  c #6C6D6D",
"|  c #6F6F6F",
" . c #6B667D",
".. c #6B697B",
"X. c #6C687F",
"o. c gray44",
"O. c gray45",
"+. c #747474",
"@. c gray46",
"#. c gray48",
"$. c #7A7C7E",
"%. c #7A7C7F",
"&. c #847E9B",
"*. c #738285",
"=. c #718B81",
"-. c #728B81",
";. c #769086",
":. c #7A968B",
">. c #7C988D",
",. c #7FC3C1",
"<. c #808080",
"1. c #868686",
"2. c #898989",
"3. c #8B8B8B",
"4. c gray55",
"5. c #8D8D8D",
"6. c #8E8E8E",
"7. c #909090",
"8. c gray57",
"9. c #929292",
"0. c #959595",
"q. c #94969A",
"w. c gray60",
"e. c #9A9B9C",
"r. c #8BAA9E",
"t. c #969CA4",
"y. c #9C9DA0",
"u. c #9D9FA2",
"i. c #9A93B5",
"p. c #9995B4",
"a. c #9A94B4",
"s. c #9996B4",
"d. c #93B5A8",
"f. c #A4AAB3",
"g. c #A1C6B8",
"h. c #A0AEC3",
"j. c #ABA4C9",
"k. c #AEA9CC",
"l. c #B0A8CE",
"z. c #A3B0C5",
"x. c #ABB6C6",
"c. c #AEBACD",
"v. c #AAB9D0",
"b. c #BDB7DD",
"n. c #BDB5DE",
"m. c #BDB6DE",
"M. c #BCBDDB",
"N. c #BCBBDC",
"B. c #8AC9C3",
"V. c #90CCC5",
"C. c #91CCC5",
"Z. c #93CDC6",
"A. c #96CFC6",
"S. c #98D0C7",
"D. c #9CD2C8",
"F. c #9ED3C8",
"G. c #A0D4C9",
"H. c #A1D4C9",
"J. c #A3D5C9",
"K. c #A3D5CA",
"L. c #A7D7CA",
"P. c #A7D7CB",
"I. c #A9D8CB",
"U. c #AAD9CB",
"Y. c #ABD9CC",
"T. c #ADDACC",
"R. c #AEDBCC",
"E. c #AFDBCD",
"W. c #B0DCCD",
"Q. c #B1DCCD",
"!. c #B2DCCD",
"~. c #B2DDCD",
"^. c #B3DDCE",
"/. c #B6DCCF",
"(. c #B4DECE",
"). c #B5DECE",
"_. c #B2C0D6",
"`. c #B7C6D6",
"'. c #B9C9D7",
"]. c #B9CAD6",
"[. c #B9CCD5",
"{. c #B8CFD4",
"}. c #B5C5DE",
"|. c #BBC1D9",
" X c #BBC2D9",
".X c #BAC5D8",
"XX c #BAC6D8",
"oX c #B7D7D1",
"OX c #B6D8D0",
"+X c #B6D8D1",
"@X c #B6DAD0",
"#X c None",
"A+ c #d62942",
"B+ c #d66b29",
"C+ c #d6b529",
"D+ c #73d629",
"E+ c #29adce",
"F+ c #5a52de",
/* pixels */
"#X#X#X#X#X#X#X#X#X$ * * * * * * * * * * * * * * * * * % #X#X#X#X#X#X#X",
"#X#X#X#X#X#X#X#X#X) i.a.s.s.s.s.s.s.s.s.s.s.s.s.s.p.i.X.e #X#X#X#X#X#X",
"#X#X#X#X#X#X#X#XV j.n. XoXoXoXoXoXoXoXoXoXoXoXoXoX].n.l.&.: #X#X#X#X#X",
"A+A+A+A+A+A+A+  P n.M.+X).).).).).B.E.).V.D.).).).@X[.n.i.> #X#X#X#X#X",
"A+A+A+A+A+A+A+  P .XoXJ.B.).).).).P.^.).I.T.).).).)./.'.p.> #X#X#X#X#X",
"B+B+B+B+B+B+B+  P ].).I.S.).).).).).).).=._ d.).I.H.).{.s.> #X  #X#X#X",
"B+B+B+B+B+B+B+  P ].).).).).).).).).).;.W E Q >.U.K.).{.s.;   E T 6 #X",
"B+B+B+B+B+B+B+  P ].).).).).).~.G.~.).L O.w.( Q r.).).{.s.8 N w.7.w #X",
"C+C+C+C+C+C+C+  P ].).).).).).W.C.W.).L O.w.w.o.U -.-.*...R w.w.7.w #X",
"C+p g g #   C+  P ].).).^.L.).).!.).).L O.w.w.0.} c c v S 4.w.w.7.w #X",
"  H 6.w.Y N 0   P ].).).W.C.).).).:.=.l G ` ` ` ` ` ` ` ` ` ` ` ~ 1 #X",
"  # ' O.O.O.J , P ].Q.Y.).).).).).C o 5 s 1         # s w .           ",
"D+D+        N x P ].I.A.).).).).).).4 ` w.` -     = A 3.] y     . 0 O ",
"D+D+D+D+D+      P ].).).).).(.E.(.).4 ` y.u.F 1 1 D w.] n | 1 1 r %.q ",
"E+E+E+E+E+E+E+  P XXOXW.U.).E.Z.E.).4 ` x._.t.#.+.5.9.<.2.4.{ 1.h.z.d ",
"E+E+E+E+E+E+E+  P m.|.F.,.).).~.).).4 ` c.}.f.^ Z w.@.Z 7.@.# w.}.v.f ",
"E+E+E+E+E+E+E+  P n.m.`.R.).).).).).g.I $.u.e.E O 2 - O < -   w.q.b #X",
"F+F+F+F+F+      @  .n.b.N.N.N.N.N.N.N.k.M E w.8.1.1.1.1.1.1.1.w.1 #X#X",
"F+F+F+F+  K O.O.G 3 k k k k k k k k k k & 1 a a a a a a a a a a #X#X#X",
"#X#X#X#X  ~ 7.! u   9 [ /   #X#X#X#X#X#X  m [ B     9 [ E + #X#X#X#X#X",
"#X#X#X#X  i N s #X#X7 N z   #X#X#X#X#X#X#Xh N t   #X7 N j X #X#X#X#X#X"
};
