/* XPM */
static char *result[] = {
/* columns rows colors chars-per-pixel */
"35 21 72 1 ",
"  c black",
". c #131313",
"X c #1D1D1D",
"o c gray12",
"O c #30261D",
"+ c #202020",
"@ c #232323",
"# c gray15",
"$ c #393939",
"% c #400D26",
"& c #403326",
"* c #402039",
"= c #604D39",
"- c #402640",
"; c #4D394D",
": c gray26",
"> c #434343",
", c gray30",
"< c #565656",
"1 c gray36",
"2 c #6D5742",
"3 c #66594D",
"4 c #734D73",
"5 c #606060",
"6 c #666360",
"7 c #6C6060",
"8 c #6C6C6C",
"9 c gray45",
"0 c #7C7C7C",
"q c #80664D",
"w c #805966",
"e c #BF7373",
"r c #BF9973",
"t c #804D80",
"y c #FF4DB3",
"u c #CF69BC",
"i c #CF7CCF",
"p c #FF60C6",
"a c #FF66CC",
"s c #FF73D9",
"d c #868686",
"f c gray56",
"g c #939393",
"h c gray60",
"j c #AC9999",
"k c #B39999",
"l c gray65",
"z c #ACACAC",
"x c gray75",
"c c #DC8F8F",
"v c #CC9999",
"b c #E69999",
"n c #FF9999",
"m c #DFB386",
"M c #FFB9BF",
"N c #FFCC99",
"B c #FFC2AC",
"V c #FF8FD9",
"C c #FFB3CC",
"Z c #FF80E6",
"A c #FF86EC",
"S c #FF8CF2",
"D c #FF9FF2",
"F c #FF93F9",
"G c #FF99FF",
"H c #FFA6E6",
"J c #FFA3EC",
"K c None",
"E c #ff0000",
"I c #ffff00",
"L c #33ff00",
"P c #6633ff",
/* pixels */
"KKKKKKKK                   KKKKKKKK",
"KKKKKKK qNNNNNNNNNNNNNNNNNq KKKKKKK",
"KKKKKKK2mNBHHHHHHHHHHHHHMNm2 KKKKKK",
"EEEEEE qNMJGGGGGyGGyAGGGDMNq KKKKKK",
"EEEEEE qMDApGGGGZGG%*iGGGDMq K  KKK",
"EEEEEE qCGFAGGGGGG-99;ipsGCq @91 KK",
"EEEEEE qCGGGGGGGGG hh0;uSGCqX0h9 KK",
"I  III qCGGGGGGaGG hhh54ttw35hh9 KK",
" ,,oII qCGGGGGGaGG hhhh5,,,9hhh9 KK",
" hh#   qCGGSsGGGGt,hhhhhhhhhhhhd, K",
" ,d5,,#qCGGSsGGGa hhhx8dhhhhlz5hh K",
"L :,dh,qCZsGGGGGa hhhd+9hh99g5#hh K",
"LLL :,#qCZsGGGGGG hvv7,dhh99d,7vv K",
"LLLL   qCGGGGFZGG hnnk0fhddhf0knn K",
"LLLLLL qMDFAGAyGG-9bbj#<9$$9<#jce K",
"PPPPPP qNMVpGGGGGG-9fh>######>f1 KK",
"PPPPP@.=mNBHHHHHHHH&69999999991 KKK",
"PPPP@05.=rrrrrrrrrrrO     ..   KKKK",
"PPP 9hh,                  ,, KKKKKK",
"KKK 9h,  ,h9 KKKKKK 9h#K ,h, KKKKKK",
"KKK    K    KKKKKKK   KKK    KKKKKK"
};
