/* XPM */
static char *result[] = {
/* columns rows colors chars-per-pixel */
"35 21 72 1 ",
"  c black",
". c #131313",
"X c gray12",
"o c #30261D",
"O c #202020",
"+ c #232323",
"@ c gray15",
"# c #393939",
"$ c #403326",
"% c #604D39",
"& c #402640",
"* c #4D394D",
"= c gray26",
"- c #434343",
"; c #494343",
": c gray30",
"> c #565656",
", c gray36",
"< c #6D5742",
"1 c #73604D",
"2 c #664D66",
"3 c #704370",
"4 c #734D73",
"5 c #606060",
"6 c #666360",
"7 c #666066",
"8 c #6C6C6C",
"9 c gray45",
"0 c #7C7C7C",
"q c #80664D",
"w c #805966",
"e c #BF7373",
"r c #BF9973",
"t c #804D80",
"y c #BF73BF",
"u c #FF4DB3",
"i c #CF69BC",
"p c #CF7CCF",
"a c #FF60C6",
"s c #FF66CC",
"d c #FF73D9",
"f c #868686",
"g c gray56",
"h c #939393",
"j c gray60",
"k c #AC9999",
"l c #B39999",
"z c gray65",
"x c #ACACAC",
"c c gray75",
"v c #C98F8F",
"b c #E69999",
"n c #FF9999",
"m c #DFB386",
"M c #FFB9BF",
"N c #FFCC99",
"B c #FFC2AC",
"V c #FF8FD9",
"C c #FFB3CC",
"Z c #FF80E6",
"A c #FF86EC",
"S c #FF8CF2",
"D c #FF9FF2",
"F c #FF93F9",
"G c #FF99FF",
"H c #FFA6E6",
"J c #FFA3EC",
"K c None",
"E c #ff0000",
"I c #ffff00",
"L c #33ff00",
"P c #6633ff",
/* pixels */
"KKKKKKKK                   KKKKKKKK",
"KKKKKKK qNNNNNNNNNNNNNNNNNq KKKKKKK",
"KKKKKKK<mNBHHHHHHHHHHHHHMNm< KKKKKK",
"KKKKKK qNMJGGGGGuGGuAGGGDMNq KKKKKK",
"EEEEEE qMDAaGGGGZGGZFGGGGDMq KKKKKK",
"EEEEEE qCGFAGGGGGGGG3&padGCq KK  KK",
"EEEEEE qCGGGGGGGGGG&79*iSGCq K+99 K",
"EEEEEE qCGGGGGGsGGG 9j54yGCq X5jj K",
"IIIIII qCGGGGGGsGGG 9jj52tw$.5jjj K",
"IIIIII qCGGSdGGGGGG 9jjj9:::5jjjj K",
"IIIII  qCGGSdGGGsGt:fjjjjjjjjjjjj: ",
"III =:@qCZdGGGGGsG jjjc89jjjjzx5jj ",
"L =:fj:qCZdGGGGGGG jjjfO:jj95h5@jj ",
"L@0099#qCGGGGFZGGG jkl;@5jj5-0@;ll ",
" jj@   qMDFAGAuGGG jbnl0fjffjg0lnn ",
" 99+LL qNMVaGGGGGG&9vbk@#9##9>@kbe ",
"P  PPP %mNBHHHHHHHH$6gj-@@@@@@-g9 K",
"PPPPPPX@1rrrrrrrrrrro>999999999, KK",
"PPPPP :j:                       KKK",
"PPPPP :j: K@j9 KKKKKK 9j:  :j9 KKKK",
"KKKKK    KKK   KKKKKKK    K    KKKK"
};
