/* XPM */
static char *result[] = {
/* columns rows colors chars-per-pixel */
"34 21 67 1 ",
"  c black",
". c gray4",
"X c #131313",
"o c #1D1D1D",
"O c #202020",
"+ c #232323",
"@ c gray15",
"# c #393939",
"$ c #403326",
"% c #604D39",
"& c #402640",
"* c #4D394D",
"= c #434343",
"- c gray30",
"; c #565656",
": c gray36",
"> c #66594D",
", c #73604D",
"< c #734D73",
"1 c #606060",
"2 c #6C6060",
"3 c #6C6C6C",
"4 c gray45",
"5 c #7C7C7C",
"6 c #80664D",
"7 c #805966",
"8 c #BF7373",
"9 c #BF9973",
"0 c #804D80",
"q c #FF4DB3",
"w c #CF7CCF",
"e c #FF60C6",
"r c #FF66CC",
"t c #FF73D9",
"y c #868686",
"u c gray56",
"i c #939393",
"p c gray60",
"a c #AC9999",
"s c #B39999",
"d c gray65",
"f c #ACACAC",
"g c gray75",
"h c #DC8F8F",
"j c #CC9999",
"k c #E69999",
"l c #FF9999",
"z c #DFB386",
"x c #FFBFB3",
"c c #FFB9BF",
"v c #FFCC99",
"b c #FFC2AC",
"n c #FF8FD9",
"m c #FFB3CC",
"M c #FF80E6",
"N c #FF86EC",
"B c #FF8CF2",
"V c #FF9FF2",
"C c #FF93F9",
"Z c #FF99FF",
"A c #FFA6E6",
"S c #FFA3EC",
"D c None",
"E c #ff0000",
"F c #ffff00",
"G c #33ff00",
"H c #6633ff",
/* pixels */
"DDDDDDDD                   DDDDDDD",
"DDDDDDD 6vvvvvvvvvvvvvvvvv6 DDDDDD",
"DDDDDD 6vvxZZZZZZZZZZZZZmvv6 DDDDD",
"EEEEEE 6vcSZZZZZqZZqNZZZVcv6 DDDDD",
"EEEEEE 6cVNeZZZZMZZMCZZZZVc6 DDDDD",
"EEEEEE 6mZCNZZZZZZZ&&wZetZm6 D  DD",
"EEEEEE 6mZZZZZZZZZ&44*wNBZm6 +4: D",
"    FF 6mZZZZZZqZZ pp5*wZZm6o5p4 D",
" --X F 6mZZZZZZrZZ ppp1<007>1pp4 D",
" -y1X  6mZZBtZZZZZ pppp1---4ppp4 D",
"  #y1X 6mZZBtZZZr0-ppppppppppppy- ",
"G  #y1@6mMtZZZZZr pppg3yppppdf1pp ",
"GGG #-@6mMtZZZZZZ pppyO4pp44i1@pp ",
"GGGG   6mZZZZBrZZ pjj2-ypp44y-2jj ",
"GGGGG  6cVCNZNqZZ plls5upyypu5sll ",
"HHHHHH 6vcneZZZZZ&4kka@;4##4;@ah8 ",
"HHHHHH %zvbAAAAAAA$4up=@@@@@@=u: D",
"HHHHH+@@,9999999999 ;444444444: DD",
"HHHH 4py#  .@o       o@.  X@o  DDD",
"DDDD 4p-  D@p4 DDDDD 4p@  -p4 DDDD",
"DDDD     DD   DDDDDDD    D   DDDDD"
};
