/* XPM */
static char *result[] = {
/* columns rows colors chars-per-pixel */
"35 21 64 1 ",
"  c black",
". c #131313",
"X c #202020",
"o c #232323",
"O c gray15",
"+ c #393939",
"@ c #403326",
"# c #604D39",
"$ c #402640",
"% c #4D394D",
"& c #434343",
"* c #494343",
"= c gray30",
"- c #565656",
"; c gray36",
": c #6D5742",
"> c #66594D",
", c #734D73",
"< c #606060",
"1 c #6C6C6C",
"2 c gray45",
"3 c #7C7C7C",
"4 c #80664D",
"5 c #805966",
"6 c #BF7373",
"7 c #BF9973",
"8 c #804D80",
"9 c #FF4DB3",
"0 c #CF7CCF",
"q c #FF60C6",
"w c #FF66CC",
"e c #FF73D9",
"r c #868686",
"t c gray56",
"y c #939393",
"u c gray60",
"i c #AC9999",
"p c #B39999",
"a c gray65",
"s c #ACACAC",
"d c gray75",
"f c #DC8F8F",
"g c #E69999",
"h c #FF9999",
"j c #DFB386",
"k c #FFB9BF",
"l c #FFCC99",
"z c #FFC2AC",
"x c #DF86DF",
"c c #FF8FD9",
"v c #FFB3CC",
"b c #FF80E6",
"n c #FF86EC",
"m c #FF8CF2",
"M c #FF9FF2",
"N c #FF93F9",
"B c #FF99FF",
"V c #FFA6E6",
"C c #FFA3EC",
"Z c None",
"E c #ff0000",
"F c #ffff00",
"G c #33ff00",
"H c #6633ff",
/* pixels */
"ZZZZZZZZZ                   ZZZZZZZ",
"ZZZZZZZZ 4lllllllllllllllll4 ZZZZZZ",
"ZZZZZZZZ:jlzVVVVVVVVVVVVVklj: ZZZZZ",
"EEEEEEE 4lkCBBBBB9BB9nBBBMkl4 ZZZZZ",
"EEEEEEE 4kMnqBBBBbBBbNBBBBMk4 ZZZZZ",
"EEEEEEE 4vBNnBBBBBBB$$0BqeBv4 Z  ZZ",
"EEEEEEE 4vBBBBBBBBB$22%0nmBv4 o2; Z",
"FFFFFFF 4vBBBBBBwBB uu<,xBBv4.<u2 Z",
"F    FF 4vBBBBBBwBB uuu<,885><uu2 Z",
" ===.   4vBBmeBBBBB uuuu<===2uuu2 Z",
" =uu<=. 4vBBmeBBBw8=uuuuuuuuuuuur= ",
"  =====O4vbeBBBBBw uuud1ruuuuas<uu ",
"GG    +O4vbeBBBBBB uuurX2uu22y<Ouu ",
"GGGGG   4vBBBBNbBB upp*O3uu<<3O*pp ",
"GGGGGGG 4kMNnBn9BB uhhp3turrut3phh ",
"HHHHHHH 4lkcqBBBBB$2ggiO-2++2-Oif6 ",
"HHHHHH  #jlzVVVVVVV@2tu&OOOOOO&t; Z",
"HHHHHoOO.#7777777777 -222222222; ZZ",
"HHHH 2uu=                       ZZZ",
"ZZZZ 2u=  =u2 ZZZZZZ 2uOZ =u= ZZZZZ",
"ZZZZ    ZZ    ZZZZZZZ   ZZ    ZZZZZ"
};
