/* XPM */
static char *result[] = {
/* columns rows colors chars-per-pixel */
"35 21 75 1 ",
"  c black",
". c gray4",
"X c #131313",
"o c #1D1D1D",
"O c gray12",
"+ c #30261D",
"@ c #202020",
"# c #232323",
"$ c gray15",
"% c #393939",
"& c #403326",
"* c #604D39",
"= c #402640",
"- c #4D394D",
"; c gray26",
": c #434343",
"> c gray30",
", c #565656",
"< c gray36",
"1 c #73604D",
"2 c #664D66",
"3 c #704370",
"4 c #606060",
"5 c #666360",
"6 c #666066",
"7 c #6C6060",
"8 c #6C6C6C",
"9 c gray45",
"0 c #7C7C7C",
"q c #80664D",
"w c #805966",
"e c #BF7373",
"r c #BF9973",
"t c #804D80",
"y c #9F609F",
"u c #FF4DB3",
"i c #CF69BC",
"p c #CF7CCF",
"a c #FF60C6",
"s c #FF66CC",
"d c #FF73D9",
"f c #868686",
"g c gray56",
"h c #939393",
"j c gray60",
"k c #AC9999",
"l c #B39999",
"z c #BF9999",
"x c gray65",
"c c #ACACAC",
"v c gray75",
"b c #C98F8F",
"n c #CC9999",
"m c #E69999",
"M c #FF9999",
"N c #DFB386",
"B c #FFBFB3",
"V c #FFB9BF",
"C c #FFCC99",
"Z c #FFC2AC",
"A c #FF8FD9",
"S c #FFB3CC",
"D c #FF80E6",
"F c #FF86EC",
"G c #FF8CF2",
"H c #FF9FF2",
"J c #FF93F9",
"K c #FF99FF",
"L c #FFA6E6",
"P c #FFA3EC",
"I c None",
"E c #ff0000",
"Q c #ffff00",
"R c #33ff00",
"T c #6633ff",
/* pixels */
"IIIIIIII                   IIIIIIII",
"IIIIIII qCCCCCCCCCCCCCCCCCq IIIIIII",
"IIIIII qCCBKKKKKKKKKKKKKSCCq IIIIII",
"IIIIII qCVPKKKKKuKKuFKKKHVCq IIIIII",
"EEEEEE qVHFaKKKKDKKDJKKKKHVq IIIIII",
"EEEEEE qSKJFKKKKKKKK3=padKSq II  II",
"EEEEEE qSKKKKKKKKKK=69-iGKSq I#99 I",
"EEEEEE qSKKKKKKuKKK 9j0-yKSq #0jj I",
"Q  QQQ qSKKKKKKsKKK 9jj42tw&X4jjj I",
" >>OQQ qSKKGdKKKKKK 9jjj9>>>4jjjj I",
" jj$   qSKKGdKKKsKt>fjjjjjjjjjjjj> ",
" >f4>>$qSDdKKKKKsK jjjv89jjjjxc4jj ",
"R ;>fj>qSDdKKKKKKK jjjf@>jj94h4$jj ",
"RRR ;>$qSKKKKGsKKK jzn7>9jj94f>7nn ",
"RRRR   qVHJFKFuKKK jmMl0fjffjg0lMM ",
"RRRRRR qCVAaKKKKKK=9bmk$%9%%9,$kme ",
"TTTTTT *NCZLLLLLLLL&5gj:$$$$$$:g9 I",
"TTTTTTO$1rrrrrrrrrrr+,999999999< II",
"TTTTT >j>  .$o        o$X  X$o  III",
"TTTTT >j> I$j9 IIIIII 9j>  >j9 IIII",
"IIIII    III   IIIIIII    I    IIII"
};
