/* XPM */
static char *rainbow[] = {
/* columns rows colors chars-per-pixel */
"6 16 4 1 ",
"a c #ff0000",
"b c #ffff00",
"c c #33ff00",
"d c #6633ff",

/* pixels */
"aaaaaa",
"aaaaaa",
"aaaaaa",
"aaaaaa",
"bbbbbb",
"bbbbbb",
"bbbbbb",
"bbbbbb",
"cccccc",
"cccccc",
"cccccc",
"cccccc",
"dddddd",
"dddddd",
"dddddd",
"dddddd",
};
