/* XPM */
static char *rainbow[] = {
/* columns rows colors chars-per-pixel */
"11 16 4 1 ",
"a c #ff0000",
"b c #ffff00",
"c c #33ff00",
"d c #6633ff",

/* pixels */
"aaaaaaaaaaa",
"aaaaaaaaaaa",
"aaaaaaaaaaa",
"aaaaaaaaaaa",
"bbbbbbbbbbb",
"bbbbbbbbbbb",
"bbbbbbbbbbb",
"bbbbbbbbbbb",
"ccccccccccc",
"ccccccccccc",
"ccccccccccc",
"ccccccccccc",
"ddddddddddd",
"ddddddddddd",
"ddddddddddd",
"ddddddddddd",
};
